<svg width="51" height="51" viewBox="0 0 51 51" fill="none" xmlns="http://www.w3.org/2000/svg">
<path fill-rule="evenodd" clip-rule="evenodd" d="M36.0466 1.42115C42.447 3.17584 46.6499 5.77445 48.8391 12.7598C51.0366 19.7117 50.6606 27.19 49.8334 34.3424C48.6386 41.4113 45.2629 46.7088 38.6118 48.6473C30.7157 51.3295 19.7698 51.3295 11.8737 48.6473C5.22258 46.7088 1.8469 41.4113 0.65204 34.3424C-0.175169 27.19 -0.559529 19.7117 1.64636 12.7598C3.82719 5.77445 8.03844 3.17584 14.4389 1.42115C21.0315 -0.241621 29.454 -0.241621 36.0466 1.42115Z" fill="#E1322D"/>
<path fill-rule="evenodd" clip-rule="evenodd" d="M39.2636 21.341C39.9153 21.341 40.5671 21.2992 41.2188 21.2992C41.4778 21.2825 41.787 21.3076 41.9541 21.5332C42.1296 21.7755 42.0293 22.093 41.8872 22.327L38.5366 28.4684C38.428 28.6772 38.2442 28.8945 37.9935 28.8945C37.7512 28.9196 37.5339 28.7441 37.417 28.5436C36.172 26.5048 34.927 24.4576 33.682 22.4189C33.5734 22.235 33.5399 22.0094 33.6068 21.8089C33.6736 21.6 33.9076 21.5081 34.1081 21.4747C34.4841 21.4413 34.8601 21.4747 35.2278 21.4329C34.9771 20.6809 34.6262 19.9707 34.2084 19.3106C33.8491 18.734 33.4397 18.2076 32.9885 17.7063C32.5874 17.2885 32.1696 16.8707 31.7017 16.5198C29.6379 14.8486 26.9306 14.0047 24.2819 14.1635C21.5329 14.3222 20.5218 15.1077 18.4246 16.2775C18.5583 15.467 19.068 14.222 19.0429 13.5702C19.0512 13.3446 18.9176 13.119 18.7087 13.0605C18.458 12.9686 18.199 13.0689 17.9567 13.1441C17.1294 13.3864 16.3022 13.6287 15.4667 13.871L15.4332 13.7039C16.8871 12.5091 18.5583 11.5732 20.3547 10.9967C23.7805 9.87703 27.6158 10.0692 30.9079 11.5398C32.5707 12.2667 34.0747 13.3196 35.3615 14.5896C36.4477 15.7009 37.2415 16.7454 37.9852 18.1073C38.545 19.1351 38.9628 20.2213 39.2636 21.341ZM16.2354 33.7408C16.0683 33.7825 15.8845 33.7993 15.7591 33.933C15.5669 34.1168 15.5836 34.4259 15.709 34.6515C16.3607 35.7795 17.0292 36.8909 17.6726 38.0189C15.1909 36.6485 13.1354 34.5262 11.8153 32.0279C11.08 30.6408 10.5619 29.1368 10.3029 27.5827C9.75141 24.3323 10.2862 21.0569 11.8236 18.1491C11.3808 17.7313 10.9463 17.2968 10.4951 16.8791C10.3029 16.712 10.1107 16.4696 10.1441 16.1939C10.1775 15.9432 10.4282 15.7845 10.6538 15.7093L17.447 13.7123C17.6726 13.6454 17.9399 13.6204 18.1405 13.7708C18.3243 13.9212 18.3577 14.1885 18.3159 14.4141C17.7812 16.7036 17.2046 18.993 16.6448 21.2825C16.5947 21.5165 16.5111 21.7755 16.2855 21.8925C16.0683 22.0011 15.8009 21.9092 15.6254 21.7588C15.333 21.5081 15.0656 21.224 14.7815 20.9733C14.1047 22.5776 13.854 24.3574 14.0128 26.0954C14.23 28.6438 15.3998 31.0837 17.2214 32.8801L17.3133 32.9721C17.3801 33.0305 17.447 33.0974 17.5138 33.1559C17.5556 33.1977 17.6057 33.2311 17.6559 33.2812C17.8146 33.4483 18.0068 33.5737 18.1739 33.7324C18.1071 33.7324 18.0486 33.7324 17.9817 33.7324C17.706 33.7575 17.4219 33.7408 17.1462 33.7491C16.837 33.7491 16.5362 33.7658 16.2354 33.7408ZM25.6271 11.5398C23.9727 11.4562 22.3099 11.6651 20.7391 12.1832V12.1748L20.7307 12.1832C20.4634 12.2667 20.196 12.367 19.9286 12.4673C19.9537 12.4923 19.9704 12.5258 19.9871 12.5508C20.1876 12.8433 20.2962 13.2109 20.2879 13.5619C20.2962 13.6538 20.2879 13.7457 20.2795 13.8376C21.3323 13.3446 22.4353 13.0271 24.1816 12.9268L24.2067 12.9185C25.694 12.8349 27.1897 13.0188 28.5934 13.47C29.9972 13.9128 31.3257 14.6147 32.4871 15.5422L32.4788 15.5505C32.7545 15.7511 32.9968 15.9683 33.2308 16.1855C33.4397 16.3861 33.6486 16.6033 33.8575 16.8122L33.9076 16.8624C34.1499 17.1297 34.3922 17.4138 34.6345 17.7397C34.8601 18.0405 35.0774 18.3413 35.2612 18.6505V18.6588C35.5119 19.0515 35.7291 19.4275 35.9046 19.7952C36.0968 20.1963 36.2722 20.614 36.4143 21.0402C36.4394 21.1237 36.4561 21.1989 36.4644 21.2825C36.548 21.9677 36.055 22.5943 35.3698 22.6695L35.303 22.6779L36.5062 24.6498C36.9741 25.4269 37.4504 26.204 37.9267 26.9894L40.3414 22.5693H40.2746C39.8735 22.5776 39.4808 22.5943 39.2636 22.5943V22.586C38.7205 22.586 38.2108 22.2267 38.0604 21.6752C37.9267 21.1572 37.7512 20.6308 37.5423 20.1043C37.3585 19.6364 37.1579 19.1936 36.9323 18.7674L36.8989 18.709C36.5563 18.0823 36.197 17.5308 35.8043 17.0044C35.4033 16.4613 34.9688 15.9683 34.4758 15.4586C33.8825 14.8737 33.2391 14.3389 32.5456 13.871C31.8688 13.4115 31.1586 13.0104 30.4149 12.6845L30.4066 12.6762C28.9026 12.0077 27.2732 11.6234 25.6271 11.5398ZM14.8734 33.0473C15.0489 32.8718 15.216 32.7632 15.3748 32.6963C14.7899 31.9527 14.2885 31.1505 13.8875 30.2982C13.2775 29.0115 12.8931 27.6161 12.7678 26.204C12.6842 25.218 12.7093 24.232 12.8514 23.2795C12.9934 22.327 13.2524 21.3828 13.6284 20.4887V20.4971C13.6786 20.3717 13.7538 20.2547 13.8457 20.1461C14.3052 19.6281 15.0907 19.5863 15.6087 20.0375L15.6589 20.0876C15.8009 19.5027 15.9095 19.0515 16.0265 18.592C16.3022 17.464 16.578 16.3276 16.8537 15.1912L12.0158 16.6117L12.0993 16.6869C12.2748 16.854 12.4503 17.0295 12.6592 17.2216C13.0686 17.5893 13.2023 18.216 12.9266 18.7257C12.2163 20.0709 11.7401 21.483 11.5061 22.9369C11.2721 24.3908 11.2805 25.8865 11.5312 27.3821C11.6481 28.084 11.8236 28.7859 12.0576 29.4627C12.2832 30.1395 12.5756 30.7996 12.9182 31.4346L12.9098 31.443H12.9182C13.3443 32.2618 13.8624 33.0305 14.4556 33.7408C14.5308 33.4901 14.6729 33.2561 14.8734 33.0473Z" fill="white"/>
<path fill-rule="evenodd" clip-rule="evenodd" d="M39.5309 27.5075C39.4808 28.3681 39.0045 29.7969 38.6954 30.5823C36.8404 35.554 31.8604 39.2639 26.588 39.8321C25.2929 39.9741 23.9811 39.949 22.6943 39.7569C22.6107 39.7318 22.5773 39.807 22.5439 39.8655C22.2598 40.3752 21.9674 40.8765 21.6749 41.3862C21.5663 41.5867 21.3657 41.7706 21.1151 41.7539C20.8561 41.7539 20.6639 41.5366 20.5469 41.3277C19.4356 39.431 18.3159 37.5259 17.2046 35.6292C17.096 35.4286 16.9623 35.2448 16.8788 35.0276C16.8286 34.8437 16.8286 34.6181 16.9707 34.4677C17.1211 34.309 17.3467 34.2588 17.5556 34.2588C19.1097 34.2505 20.6555 34.2421 22.2097 34.2338C23.0035 34.2087 23.8056 34.2254 24.6077 34.2171C24.8333 34.2087 25.1007 34.2588 25.2428 34.4594C25.3681 34.6348 25.3514 34.8772 25.2595 35.0777C25.1007 35.4036 24.8835 35.7044 24.7331 36.0386C27.5656 36.1221 30.4066 35.0025 32.4537 33.0389C34.1582 31.4263 35.3197 29.2622 35.7124 26.9476C35.7208 26.8641 35.7375 26.7889 35.7625 26.7053C35.9213 26.9226 36.0383 27.1565 36.1803 27.3821C36.5981 28.0589 37.0075 28.7525 37.4337 29.4293C37.559 29.6382 37.8097 29.822 38.0603 29.7635C38.5366 29.6465 39.2719 27.9837 39.5309 27.5075ZM36.3725 30.0894L36.1803 29.7718C36.0299 30.1311 35.8628 30.4904 35.679 30.833C35.0523 31.9944 34.2502 33.0473 33.306 33.9413C32.1612 35.0359 30.7993 35.8965 29.3287 36.4731C27.8748 37.0329 26.3206 37.3254 24.7581 37.2919C24.5827 37.2919 24.4072 37.2585 24.2317 37.1833C23.6051 36.9076 23.3126 36.1723 23.5884 35.5456L23.6301 35.462C23.1706 35.462 22.7194 35.462 22.2431 35.4788C21.0232 35.4788 19.7949 35.4955 18.575 35.4955L21.1234 39.8404L21.4577 39.2555L21.4911 39.1887V39.197C21.7585 38.7625 22.0509 38.2779 22.97 38.5369C23.5466 38.6205 24.1148 38.6623 24.6662 38.679C25.2511 38.6873 25.8444 38.6623 26.4543 38.5871C28.8775 38.328 31.2421 37.3421 33.2057 35.8381C34.9353 34.5179 36.3558 32.8049 37.2331 30.8581C37.1997 30.8414 37.1746 30.8247 37.1412 30.8163C36.8738 30.6659 36.6315 30.4487 36.4644 30.2063C36.431 30.1729 36.3976 30.1311 36.3725 30.0894Z" fill="white"/>
</svg>
