<svg width="51" height="51" viewBox="0 0 51 51" fill="none" xmlns="http://www.w3.org/2000/svg">
<path fill-rule="evenodd" clip-rule="evenodd" d="M36.0388 1.23699C42.4427 2.99514 46.6533 5.59052 48.8382 12.5813C51.0398 19.5302 50.6547 27.0149 49.826 34.1647C48.6373 41.2308 45.2637 46.5304 38.6087 48.4644C30.7147 51.1519 19.7737 51.1519 11.8713 48.4644C5.22464 46.5304 1.8427 41.2308 0.654001 34.1647C-0.174741 27.0149 -0.559812 19.5302 1.64179 12.5813C3.82666 5.59052 8.03734 2.99514 14.4412 1.23699C21.0293 -0.412329 29.4507 -0.412329 36.0388 1.23699Z" fill="#E1322D"/>
<path d="M34.9255 8.27802C35.185 8.16081 35.4612 8.26964 35.6956 8.4036C35.771 8.62965 35.9216 8.86407 35.8379 9.10686C35.6872 9.54221 35.344 9.86873 35.051 10.212C33.3266 12.0622 30.8236 13.1674 28.2872 13.1339C27.8602 13.2176 27.3998 12.8576 27.4501 12.4139C27.4333 12.0455 27.8016 11.786 28.1281 11.7274C29.3503 11.7022 30.6227 11.5599 31.711 10.9739C31.8868 10.8901 32.0709 10.798 32.2467 10.6976C32.9834 10.2957 33.6279 9.74315 34.1721 9.10686C34.3981 8.82221 34.5655 8.44546 34.9255 8.27802Z" fill="white"/>
<path d="M23.9091 10.1952C25.3656 8.93096 27.291 8.10211 29.2415 8.27793C29.6851 8.60444 29.6935 9.40817 29.1243 9.60073C28.5299 9.68445 27.9188 9.69282 27.3496 9.90213C27.2408 9.93562 27.1236 9.96911 27.0064 10.011C26.8641 10.0612 26.7218 10.1198 26.5795 10.1784C25.6503 10.597 24.8131 11.1914 24.0932 11.9031C23.3398 11.4342 22.4525 11.2082 21.5819 11.0826C20.276 10.89 19.0203 11.518 18.0493 12.3301C17.8902 12.4808 17.6558 12.4473 17.4549 12.464C17.2791 12.3384 17.1201 12.1877 16.9861 12.0203C16.9945 11.7691 16.961 11.4761 17.1703 11.2835C18.0409 10.4045 19.2212 9.89376 20.4267 9.68445C21.54 9.55887 22.6953 9.73468 23.7333 10.17C23.7751 10.1784 23.8672 10.1868 23.9091 10.1952Z" fill="white"/>
<path fill-rule="evenodd" clip-rule="evenodd" d="M33.7869 14.08C33.8036 14.0633 33.812 14.0381 33.8622 14.0047C34.2557 13.653 34.6407 13.3098 35.4193 13.3433C35.729 13.36 36.0136 13.4856 36.2313 13.6865C37.0684 14.4233 38.0059 15.1349 38.9351 15.8465C39.5462 16.3154 40.1489 16.7758 40.7684 17.2782H40.7768C41.0865 17.5293 41.3376 17.7219 41.5888 17.9061C42.091 18.2828 42.6017 18.6512 43.0705 19.1117C43.3467 19.3712 43.4806 19.7312 43.4639 20.0912L43.4723 20.2922C43.4806 21.6317 43.489 22.9796 43.4639 24.3192C43.4974 25.0308 43.489 25.7508 43.4723 26.4708C43.4639 27.1071 43.4555 27.7518 43.4806 28.4048V28.455C43.489 28.9657 43.4806 29.4681 43.4723 29.962C43.4639 30.5062 43.4555 31.0504 43.4723 31.5946C43.4974 32.1806 43.4806 32.7751 43.4723 33.3611C43.4639 33.8718 43.4555 34.3741 43.4723 34.8848C43.4974 35.5128 43.489 36.1407 43.4723 36.7686C43.4639 37.3546 43.4555 37.9323 43.4806 38.51V38.5351C43.4974 39.0123 43.489 39.4979 43.4723 39.9751C43.4639 40.4105 43.4555 40.8375 43.4723 41.2728C43.5058 41.9677 42.9533 42.5621 42.2501 42.5872C42.2166 42.5956 42.1748 42.5872 42.1329 42.5872C41.6474 42.5789 41.1535 42.5789 40.668 42.5872C40.015 42.5956 39.3704 42.604 38.7342 42.5789C37.805 42.5956 36.8675 42.5872 35.9299 42.5872C34.9923 42.5789 34.0548 42.5789 33.1172 42.5956C33.0921 42.5956 33.067 42.5956 33.0419 42.5956C32.3303 42.5621 31.6355 42.5789 30.9407 42.5872C30.3631 42.5956 29.7855 42.604 29.1995 42.5872H29.166C28.5884 42.5621 28.0192 42.5789 27.4416 42.5872C26.8556 42.5956 26.2612 42.604 25.6669 42.5872C25.1144 42.5621 24.5703 42.5789 24.0178 42.5872C23.4318 42.5956 22.8458 42.6124 22.2598 42.5872H22.2515C21.699 42.5621 21.1549 42.5789 20.6024 42.5872C20.0164 42.5956 19.4304 42.6124 18.8361 42.5872C18.2919 42.5621 17.7478 42.5789 17.2121 42.5872C16.6177 42.5956 16.0317 42.6124 15.4374 42.5872C14.8849 42.5621 14.3324 42.5789 13.7799 42.5872C13.1521 42.5956 12.5242 42.6124 11.8964 42.5789H11.5783C11.1011 42.5705 10.624 42.5621 10.1719 42.604C9.46876 42.6793 8.8493 42.1686 8.78233 41.4654C8.77396 41.4068 8.77396 41.3482 8.77396 41.2812V35.6216C8.77396 32.1555 8.77396 28.6978 8.77396 25.2317C8.77396 24.5368 9.33482 23.9759 10.0213 23.9592C10.7161 23.9424 11.4192 23.9508 12.1224 23.9592L12.3903 23.9675C12.4238 23.4066 12.4656 22.8708 12.5075 22.3433C12.5912 21.2131 12.6749 20.0912 12.7 19.0782C12.7 19.0531 12.7 19.0196 12.7084 18.9861C12.8005 18.0066 12.8674 16.9517 12.926 15.9051C12.9511 15.4614 12.9763 15.0261 13.0014 14.6577C13.0432 13.9544 13.6543 13.427 14.3575 13.4688H14.3742C15.203 13.4856 16.0234 13.4856 16.8437 13.4772C17.6055 13.4772 18.3589 13.4688 19.1123 13.4856C19.782 13.494 20.3261 14.0214 20.368 14.6828V14.6744C20.3931 15.1098 20.4433 15.6958 20.4852 16.2735C20.5438 17.0689 20.6024 17.8642 20.6442 18.7768C20.7363 19.5638 20.7782 20.3926 20.8116 21.2215C20.8451 21.9498 20.8786 22.6699 20.9623 23.415C20.9707 23.4652 20.9707 23.5154 20.9707 23.5657C20.9791 23.6661 20.9874 23.8085 20.9958 23.9592C21.858 23.9592 22.7119 23.9592 23.5741 23.9592C24.6958 23.9592 25.8259 23.9675 26.9477 23.9592V23.5071C26.9393 22.3433 26.9393 21.1712 26.9644 20.0159C26.9644 19.681 27.0984 19.388 27.3076 19.1703V19.1619C27.6257 18.8187 27.969 18.5675 28.3122 18.3163C28.4712 18.1991 28.6303 18.0819 28.6805 18.0484L28.6889 18.04V18.0317C29.1744 17.6633 29.4004 17.4875 29.6264 17.3117C30.4049 16.7089 31.1835 16.1061 31.9285 15.4949L31.9536 15.4782C32.1127 15.3526 32.2801 15.227 32.4475 15.1014C32.7991 14.8502 33.1507 14.5907 33.452 14.3061C33.5525 14.214 33.6613 14.1386 33.7869 14.08ZM38.7677 41.3063C36.8758 41.3398 34.984 41.2896 33.0921 41.323C31.8029 41.2728 30.5138 41.3482 29.2246 41.3147C28.0527 41.2644 26.8807 41.3565 25.7087 41.3147C24.5786 41.2728 23.4402 41.3565 22.3017 41.3147C21.1632 41.2728 20.0248 41.3565 18.8863 41.3147C17.7478 41.2728 16.6177 41.3565 15.4792 41.3147C14.3073 41.2728 13.1269 41.3649 11.955 41.3147C11.3188 41.3063 10.6826 41.2812 10.0464 41.3398C10.0464 35.9732 10.0464 30.6067 10.0464 25.2317C11.2351 25.2066 12.4154 25.2485 13.6041 25.2401C13.6794 23.1973 13.9222 21.1545 13.9724 19.1033C14.1147 17.6549 14.1817 16.1982 14.2738 14.7414C15.881 14.7749 17.4883 14.7247 19.0956 14.7498C19.1876 16.1396 19.3132 17.5293 19.3718 18.9191C19.556 20.4596 19.5225 22.0168 19.6983 23.5573C19.7234 24.1182 19.7736 24.6708 19.782 25.2317C22.5947 25.215 25.4074 25.2569 28.2201 25.2234C28.2201 23.4903 28.195 21.7657 28.2285 20.041C28.5968 19.6559 29.0572 19.3712 29.4758 19.0363C30.564 18.1907 31.6606 17.3535 32.7321 16.4828C33.2679 16.0726 33.8287 15.6958 34.3226 15.2354C34.6826 15.0596 34.9337 14.5991 35.3607 14.6158C36.834 15.9051 38.4412 17.0354 39.9648 18.2661C40.7014 18.8689 41.5051 19.3712 42.1915 20.0326C42.2082 21.4726 42.2166 22.9126 42.1915 24.361C42.2585 25.7257 42.1496 27.0904 42.2082 28.455C42.2333 29.5099 42.158 30.5732 42.1999 31.6364C42.2417 32.7416 42.1664 33.8383 42.1999 34.9351C42.2501 36.149 42.1496 37.3546 42.2082 38.5686C42.2417 39.4895 42.1664 40.4021 42.1999 41.3147C41.0614 41.2896 39.9145 41.3565 38.7677 41.3063ZM33.1172 26.6048C33.1088 25.6838 33.0921 24.7629 33.1172 23.8503C32.6484 23.842 32.1796 23.8336 31.7192 23.8336C31.7108 24.7713 31.7694 25.709 31.736 26.6466C32.1964 26.6299 32.6568 26.6215 33.1172 26.6048ZM34.5068 23.8336C34.5152 24.7713 34.5403 25.7006 34.5152 26.6383C34.984 26.6299 35.4527 26.6299 35.9132 26.6299C35.8629 25.7006 35.9131 24.7629 35.9299 23.8336C35.4527 23.8336 34.9756 23.8336 34.5068 23.8336ZM37.3028 26.6048C37.7715 26.6383 38.232 26.6299 38.6924 26.6383C38.684 25.7006 38.6924 24.7629 38.7007 23.8336C38.2403 23.8252 37.7799 23.8336 37.3195 23.842C37.3279 24.7629 37.2776 25.6838 37.3028 26.6048ZM13.5455 28.7146C13.5455 29.1834 13.5371 29.6522 13.5706 30.1211C14.4914 30.1629 15.4123 30.1127 16.3415 30.1211C16.3498 29.6522 16.3498 29.1918 16.3498 28.7229C15.4123 28.7313 14.4831 28.7732 13.5455 28.7146ZM17.7562 28.7397C17.7729 29.2085 17.7813 29.669 17.7478 30.1378C18.677 30.1378 19.5978 30.1043 20.527 30.1211C20.5438 29.6522 20.5354 29.1918 20.5438 28.7229C19.6146 28.7229 18.6854 28.7481 17.7562 28.7397ZM28.9065 28.7313C27.9857 28.7564 27.0649 28.7313 26.144 28.7146C26.1189 29.1834 26.1357 29.6522 26.1273 30.1127C27.0565 30.1043 27.9941 30.1546 28.9233 30.1378C28.9065 29.669 28.9149 29.2001 28.9065 28.7313ZM31.7025 31.5276C32.1796 31.5192 32.6484 31.5025 33.1172 31.4941C33.0753 30.5732 33.1256 29.6439 33.1005 28.7146C32.6484 28.7397 32.188 28.7564 31.736 28.7313C31.7527 29.6606 31.7108 30.5983 31.7025 31.5276ZM24.7377 30.1295C24.7126 29.669 24.721 29.2001 24.721 28.7313C23.7918 28.748 22.8709 28.7229 21.9417 28.7313C21.9501 29.2001 21.9501 29.669 21.925 30.1378C22.8626 30.096 23.8001 30.1295 24.7377 30.1295ZM35.9215 31.5192C35.9299 30.5899 35.8797 29.669 35.9048 28.7397C35.4444 28.7397 34.984 28.7564 34.5235 28.7313C34.5235 29.6606 34.4984 30.5899 34.5068 31.5276C34.9756 31.5192 35.4527 31.5192 35.9215 31.5192ZM37.3028 28.7229C37.2944 29.6522 37.3362 30.5732 37.3195 31.5025C37.7799 31.5192 38.2403 31.5276 38.7007 31.5192C38.7091 30.5899 38.684 29.6606 38.6924 28.7313C38.232 28.748 37.7632 28.7481 37.3028 28.7229ZM33.1256 36.417C33.0921 35.496 33.0921 34.5667 33.1172 33.6374C32.6484 33.629 32.1713 33.6123 31.7025 33.629C31.7192 34.55 31.7527 35.4709 31.736 36.3918C32.2047 36.3751 32.6652 36.417 33.1256 36.417ZM37.3111 36.4253C37.7632 36.3835 38.232 36.3835 38.6924 36.4002C38.684 35.4709 38.7007 34.5416 38.7007 33.6207C38.2403 33.6123 37.7799 33.629 37.3195 33.629C37.3446 34.5583 37.2776 35.496 37.3111 36.4253ZM35.9132 36.3918C35.8629 35.4709 35.9299 34.55 35.9215 33.6207C35.4527 33.6207 34.984 33.6207 34.5068 33.6207C34.4984 34.5416 34.5403 35.4709 34.5152 36.3918C34.9756 36.3918 35.4444 36.3835 35.9132 36.3918Z" fill="white"/>
</svg>
