<svg width="51" height="51" viewBox="0 0 51 51" fill="none" xmlns="http://www.w3.org/2000/svg">
<path fill-rule="evenodd" clip-rule="evenodd" d="M36.0422 1.75224C42.4467 3.51057 46.6578 6.10619 48.8429 13.0976C51.0447 20.0472 50.6596 27.5326 49.8308 34.6832C48.642 41.7499 45.2681 47.05 38.6124 48.9842C30.7177 51.6719 19.7756 51.6719 11.8725 48.9842C5.22514 47.05 1.84288 41.7499 0.654064 34.6832C-0.174757 27.5326 -0.559866 20.0472 1.64195 13.0976C3.82703 6.10619 8.03811 3.51057 14.4426 1.75224C21.0313 0.102768 29.4535 0.102768 36.0422 1.75224Z" fill="#E1322D"/>
<path d="M18.6872 15.8105C17.6826 16.0868 17.2221 15.7351 17.2807 15.9361C17.2807 15.9445 17.4482 16.1036 17.691 16.338C18.7207 17.326 20.7216 19.235 21.3411 23.7816L21.9439 28.1606C22.0444 28.9058 21.902 29.2073 21.969 29.1989C22.0779 29.1821 22.4378 28.8221 22.9234 28.3281C24.8238 26.3939 28.3066 22.8773 34.9455 25.2971C35.6236 25.5483 36.2683 25.7576 36.8292 25.9418C39.0896 26.687 40.0356 27.0052 40.7138 28.8305C41.2579 30.2957 41.9612 32.2466 42.1956 34.0385C42.4468 36.0145 42.137 37.7896 40.5045 38.6352L39.5333 39.146C36.8208 40.5526 35.4646 41.256 33.9744 41.6328C32.4925 42.0179 30.9521 42.043 27.8796 42.1016L26.808 42.1184C24.6732 42.1602 19.2733 41.0048 15.0538 39.3553C11.906 38.1245 9.36089 36.5671 9.08462 34.9009L8.33115 30.2874C7.97952 28.1941 8.47347 24.778 9.40275 21.5711C10.3069 18.4396 11.6464 15.4588 13.0445 14.0354C16.6277 10.4016 17.3477 10.3095 20.7635 9.86569C21.5672 9.76521 22.5299 9.63962 23.7857 9.43029C24.5057 9.3047 25.8369 9.52239 26.9336 9.95779C27.8796 10.3429 28.6833 10.9207 28.9094 11.6491C29.3112 13.0056 29.5707 13.9182 29.5372 14.8141C29.4954 15.7519 29.1354 16.5724 28.2982 17.6609C27.8043 18.2973 26.9503 18.5233 26.0294 18.5066C24.9829 18.4815 23.8025 18.1298 23.116 17.7363L19.4491 15.6095L18.6872 15.8105ZM16.0501 16.271C15.824 15.4421 16.4184 15.1072 18.3523 14.5797L19.3653 14.3034L19.3737 14.3117C19.5244 14.2615 19.7002 14.2866 19.8593 14.3703L23.7522 16.631C24.288 16.9408 25.2173 17.2172 26.0545 17.2339C26.6071 17.2423 27.0843 17.1502 27.2852 16.8906C27.9466 16.0198 28.2312 15.4086 28.2647 14.7639C28.2898 14.0773 28.0554 13.2484 27.687 12.0175C27.595 11.7077 27.0759 11.3896 26.4564 11.1384C25.5606 10.7783 24.5141 10.5941 23.995 10.6862C22.7811 10.8872 21.7681 11.0212 20.9309 11.13C17.8751 11.5235 17.2305 11.6073 13.9487 14.9313C12.7013 16.1957 11.479 18.9671 10.6251 21.9228C9.73763 24.9705 9.2688 28.169 9.58694 30.0864L10.3488 34.6916C10.533 35.8303 12.7515 37.0862 15.5143 38.1663C19.5998 39.7656 24.7736 40.8876 26.7913 40.8457L27.8629 40.8289C30.8265 40.7703 32.3 40.7452 33.6646 40.4019C35.0125 40.0586 36.3185 39.372 38.9389 38.0156L39.9268 37.5049C40.9482 36.9774 41.124 35.6796 40.9314 34.1975C40.7221 32.5481 40.044 30.6809 39.525 29.2742C39.0561 28.0267 38.2859 27.7671 36.4357 27.1559C35.8999 26.98 35.2888 26.7791 34.5102 26.4944C28.6415 24.3509 25.5271 27.4992 23.8276 29.2156C23.1662 29.8855 22.6806 30.3795 22.1448 30.4548C21.3579 30.5637 20.9058 30.0027 20.6797 28.3365L20.0853 23.949C19.5244 19.8463 17.7328 18.1382 16.8119 17.2506C16.4184 16.8739 16.1422 16.6143 16.0501 16.271Z" fill="white"/>
</svg>
