<svg width="51" height="51" viewBox="0 0 51 51" fill="none" xmlns="http://www.w3.org/2000/svg">
<path fill-rule="evenodd" clip-rule="evenodd" d="M36.0388 1.24261C42.4481 2.99448 46.6508 5.59512 48.837 12.5822C51.0368 19.5354 50.6566 27.0182 49.8283 34.1683C48.6333 41.2368 45.2589 46.5332 38.6052 48.4684C30.709 51.1505 19.7711 51.1505 11.8749 48.4684C5.22115 46.5332 1.83997 41.2368 0.651807 34.1683C-0.176514 27.0182 -0.556727 19.5354 1.64308 12.5822C3.8293 5.59512 8.03201 2.99448 14.4413 1.24261C21.0271 -0.414202 29.4529 -0.414202 36.0388 1.24261Z" fill="#E1322D"/>
<path d="M23.6887 9.49264C24.354 7.74077 26.6693 9.23461 27.0359 10.4908C28.1358 13.6007 25.2367 16.2353 25.0873 19.2434C25.0534 20.5063 26.3298 21.0156 27.3957 20.8051C30.2949 20.7236 33.2823 19.6168 36.1542 20.4113C37.7498 21.0767 36.935 22.9712 36.7449 24.2138C37.3356 24.7434 38.354 24.9947 38.5306 25.857C38.9311 27.0792 37.7973 27.9076 37.1726 28.7768C37.7498 29.6663 38.9447 30.4743 38.4355 31.6762C37.9059 32.3349 37.2202 32.8441 36.5887 33.4009C37.356 35.696 36.5005 36.4022 35.1154 37.1559C31.8361 38.9281 27.5044 38.2559 23.8788 38.1541C19.6557 38.2016 16.0097 35.7028 11.8681 35.3497C11.8749 31.8799 11.8477 28.4101 11.8885 24.9539C14.6858 24.3971 15.3783 21.3144 17.2386 19.5557C20.0495 16.6767 22.4326 13.3495 23.6887 9.49264Z" fill="#E1322D"/>
<path d="M22.9621 9.2211C23.1454 8.739 23.4237 8.40628 23.7632 8.18899C24.1978 7.91738 24.6934 7.86306 25.1958 7.95813C25.61 8.0464 26.0377 8.24331 26.4179 8.51492C27.0426 8.94949 27.5654 9.60135 27.769 10.2328C28.5227 12.3582 27.7147 14.1712 26.9 15.9977C26.4111 17.0977 25.9155 18.1977 25.8612 19.2842L25.8816 19.4607C25.9155 19.644 26.0241 19.7799 26.1667 19.8749C26.3568 20.0039 26.608 20.065 26.866 20.0718C26.9882 20.0786 27.1172 20.065 27.2462 20.0379L27.3752 20.0311C28.3258 20.0039 29.3374 19.8478 30.3558 19.6984C32.3384 19.3996 34.3345 19.1008 36.3646 19.6644L36.4528 19.6984C38.3539 20.4928 37.9737 22.1972 37.6478 23.6503L37.6003 23.8743L37.8107 24.0034C38.4354 24.3836 39.0668 24.7639 39.2705 25.633C39.705 26.9842 38.9582 27.8602 38.2385 28.6954L38.157 28.7904L38.286 28.9398C38.9853 29.775 39.7186 30.6374 39.1483 31.975L39.1075 32.0837L39.0396 32.1584C38.5983 32.7084 38.0891 33.1362 37.5867 33.5707L37.4713 33.659C37.7632 34.7658 37.6817 35.5671 37.3423 36.2121C36.9553 36.9523 36.2967 37.3936 35.4819 37.835C32.61 39.3967 29.093 39.1998 25.8476 39.0233C25.1483 38.9825 24.4693 38.9418 23.8651 38.9282C21.4412 38.9486 19.2618 38.2084 17.0891 37.4683C15.351 36.8708 13.6061 36.2732 11.8069 36.1239L11.094 36.0627V31.9207C11.0872 29.5917 11.0872 27.2626 11.1144 24.9404L11.1211 24.3089L11.739 24.1867C13.2327 23.8947 14.0746 22.6046 14.9165 21.3144C15.4461 20.4928 15.9824 19.6712 16.7089 18.9922C18.0736 17.5866 19.3365 16.086 20.4024 14.4631C21.4684 12.8539 22.3442 11.1156 22.9485 9.25505L22.9621 9.2211ZM24.5915 9.50629C24.5304 9.54024 24.4693 9.62172 24.4218 9.75074C23.77 11.7403 22.8331 13.594 21.6924 15.3187C20.5586 17.0366 19.2278 18.6255 17.7952 20.099L17.7749 20.1262C17.191 20.6762 16.7021 21.4231 16.2201 22.1632C15.2967 23.5688 14.3801 24.9744 12.6556 25.5515C12.6352 27.6769 12.642 29.8022 12.642 31.9207V34.6504C14.3597 34.8948 15.9756 35.4448 17.5848 35.9948C19.6488 36.701 21.7128 37.4004 23.8719 37.3732H23.899C24.5915 37.3936 25.2569 37.4344 25.9291 37.4683C28.964 37.6381 32.2501 37.8214 34.7419 36.4702C35.319 36.1578 35.7807 35.8726 35.9708 35.4992C36.1677 35.1257 36.1609 34.5689 35.8554 33.6454L35.6924 33.1633L36.5818 32.3825C36.996 32.0294 37.4169 31.6763 37.7496 31.2824C37.8583 30.8479 37.4713 30.3861 37.0978 29.9448C36.9009 29.7071 36.704 29.4695 36.5275 29.2046L36.2356 28.7565L36.5411 28.3287C36.6905 28.1182 36.8738 27.9077 37.0639 27.6904C37.4984 27.1744 37.9669 26.6312 37.7904 26.1015L37.77 26.0133C37.7157 25.762 37.3626 25.5515 37.0096 25.3342C36.7448 25.1781 36.48 25.0219 36.2288 24.791L35.9097 24.5126L35.9776 24.0984C36.0115 23.8743 36.0726 23.5959 36.1337 23.3108C36.3238 22.4552 36.5479 21.457 35.8961 21.1447C34.2055 20.6965 32.3859 20.9681 30.5799 21.2397C29.5615 21.3891 28.5498 21.5453 27.4975 21.5725C27.287 21.6132 27.0561 21.6268 26.8253 21.6268C26.2889 21.6064 25.7526 21.457 25.318 21.1718C24.836 20.8595 24.4761 20.3842 24.3539 19.7663C24.32 19.6033 24.3064 19.42 24.3132 19.2231V19.2095C24.3811 17.8311 24.931 16.5953 25.481 15.3662C26.1667 13.8249 26.8525 12.2971 26.3025 10.7489L26.2889 10.7082C26.2007 10.3958 25.8951 10.0427 25.5217 9.78469C25.318 9.6353 25.094 9.52666 24.8903 9.48592C24.7613 9.45876 24.6527 9.45876 24.5915 9.50629Z" fill="white"/>
</svg>
