<svg width="51" height="52" viewBox="0 0 51 52" fill="none" xmlns="http://www.w3.org/2000/svg">
<path fill-rule="evenodd" clip-rule="evenodd" d="M36.0422 1.8488C42.4522 3.60084 46.6553 6.20174 48.8417 13.1895C51.0417 20.1433 50.6615 27.6269 49.8331 34.7776C48.638 41.8469 45.2633 47.1437 38.6089 49.0791C30.712 51.7615 19.773 51.7615 11.876 49.0791C5.22165 47.1437 1.84015 41.8469 0.65187 34.7776C-0.176531 27.6269 -0.55678 20.1433 1.64323 13.1895C3.82967 6.20174 8.03278 3.60084 14.4427 1.8488C21.0292 0.191837 29.4558 0.191837 36.0422 1.8488Z" fill="#E1322D"/>
<path d="M11.6248 10.3102H12.0118C13.655 11.2405 15.3322 12.1301 16.9075 13.1691C17.152 13.7531 16.8532 14.4051 16.8396 15.0162C19.6168 17.8005 22.4008 20.5779 25.1848 23.3622C25.7551 22.9887 26.3527 22.4318 27.0928 22.6152C28.3218 22.9072 29.1842 24.1771 28.8514 25.4334C29.6187 26.6897 31.3095 26.2143 32.2058 27.2873C34.6503 29.7116 37.0879 32.1495 39.5256 34.5807C40.191 35.219 40.5849 36.0746 40.775 36.971V37.623C40.7071 39.4361 39.3558 41.0727 37.5497 41.3851H36.2527C35.3904 41.1949 34.5891 40.7671 33.9712 40.1356C31.6286 37.7995 29.3064 35.4431 26.9638 33.1138C26.1218 32.4212 25.7416 31.389 25.6872 30.3228C25.3885 30.0376 25.0897 29.7524 24.7909 29.4672C23.5483 29.7727 22.2989 28.9171 22.0137 27.7015C21.8304 26.9613 22.3872 26.3637 22.7539 25.7865C19.9699 23.0091 17.1995 20.2248 14.4088 17.4474C13.8044 17.4745 13.1594 17.7258 12.5686 17.5221C11.5297 15.9466 10.6402 14.2692 9.70996 12.6259V12.2659C10.3075 11.5801 10.9729 10.9553 11.6248 10.3102ZM11.1019 12.6055C11.8285 13.8482 12.5347 15.0977 13.2612 16.3405C13.8723 16.3472 14.6396 15.8923 15.1285 16.4355C18.0008 19.2605 20.8323 22.133 23.6909 24.9784C23.915 24.7475 24.1391 24.5234 24.3699 24.2925C21.5656 21.4879 18.7613 18.6901 15.9637 15.8855C15.2847 15.3829 15.6921 14.5273 15.7261 13.8482C14.4834 13.1488 13.2476 12.4289 12.0118 11.7091C11.7063 12.0079 11.4007 12.3067 11.1019 12.6055ZM23.1138 27.4095C23.3922 27.7287 23.6502 28.0682 23.9897 28.3195C24.3903 28.2244 24.7977 28.1633 25.2051 28.1429C25.8095 28.6726 26.4002 29.2227 26.8823 29.8542C27.0181 30.4926 26.8416 31.2599 27.378 31.7489C29.6866 34.1189 32.0632 36.421 34.3854 38.7706C34.9626 39.341 35.5601 39.993 36.4021 40.1356C37.6855 40.4208 39.0707 39.538 39.4034 38.2681C39.7157 37.2766 39.3898 36.1629 38.6293 35.4703C36.2527 33.0799 33.8626 30.6963 31.486 28.3059C31.0854 27.8374 30.5286 27.5453 29.8971 27.5725C28.9261 27.6268 28.4033 26.6422 27.7582 26.0717C27.1267 25.6507 28.0095 24.8698 27.5749 24.408C27.3169 24.1567 26.8551 23.5116 26.4953 23.9734C25.307 25.0531 24.1594 26.1872 23.1138 27.4095Z" fill="white"/>
<path d="M32.8848 10.3102H34.6095C35.078 10.446 35.7774 10.5614 35.5941 11.2337C34.5348 12.7141 32.844 13.6784 31.9342 15.2675C33.1496 16.6664 34.4194 18.0721 35.9471 19.1383C37.278 17.9295 38.4391 16.5306 39.8379 15.3965C40.6935 15.3422 40.6459 16.2861 40.775 16.8905V17.8073C40.3947 20.2588 39.3286 22.7306 37.4138 24.3604C35.7434 25.7118 33.3805 25.3655 31.615 24.3944C31.1397 24.9445 30.0804 25.7526 29.7749 24.5981C30.1619 23.9326 30.7051 23.3011 31.4181 22.9751C32.9798 23.7017 34.9422 24.6524 36.5379 23.4708C38.3169 21.9972 39.2947 19.6883 39.4848 17.4134C38.4459 18.3098 37.6447 19.5186 36.4292 20.1841C34.7792 20.6662 33.849 18.8938 32.7829 17.9974C31.9477 17.0331 30.3588 16.1503 30.8477 14.6495C31.4588 13.3796 32.7286 12.5987 33.6181 11.5461C32.2193 11.6548 30.8477 12.0622 29.6391 12.7888C28.4372 13.4611 27.1675 14.439 26.9909 15.9126C26.76 17.2776 27.5952 18.4456 28.0638 19.6544C27.4526 20.5168 26.6786 21.2842 25.8298 21.9157C25.3952 22.2417 24.9471 21.6305 25.0014 21.2231C25.4563 20.5644 26.0742 20.0415 26.631 19.471C25.7212 17.8073 25.273 15.641 26.4205 13.9704C27.9008 11.8789 30.4403 10.7855 32.8848 10.3102Z" fill="white"/>
<path d="M17.41 28.822C18.4897 27.8034 19.4471 26.6625 20.6014 25.7322C21.3891 25.4945 21.6607 26.5607 21.0428 26.9274C19.936 27.9732 18.9718 29.2295 17.7224 30.0851C16.2421 29.9221 14.6396 29.8407 13.3631 30.7438C10.8371 32.2514 10.226 36.0407 12.1476 38.2749C13.9267 40.5702 17.702 40.7671 19.7051 38.6688C21.1582 37.297 21.4705 35.1375 20.9477 33.2768C21.8033 32.4076 22.6249 31.4908 23.5483 30.6759C23.9693 30.2142 24.7977 30.7914 24.4922 31.355C23.8539 32.2175 23.0119 32.8965 22.2718 33.6639C23.2224 37.2766 20.3502 41.1135 16.6631 41.3851H15.6038C13.3563 41.1678 11.2513 39.7553 10.3347 37.6705C9.15996 35.1918 9.86614 32.0137 11.9643 30.2549C13.431 28.9375 15.4952 28.4825 17.41 28.822Z" fill="white"/>
<path d="M28.5254 30.024C28.8174 29.7252 29.1161 29.4264 29.4149 29.1276C31.9001 31.613 34.3853 34.0985 36.8773 36.5907C36.5785 36.8827 36.2798 37.1815 35.981 37.4803C33.4958 34.9949 31.0106 32.5094 28.5254 30.024Z" fill="white"/>
<path d="M16.0656 31.6266C16.4527 31.5655 16.9551 31.2667 17.2811 31.6266C18.0823 32.3872 18.8903 33.1409 19.6033 33.9898C19.5422 35.2189 19.1484 36.4481 18.7274 37.6025C17.5459 38.0168 16.2829 38.4853 15.0335 38.5261C14.1576 37.7655 13.3292 36.937 12.5619 36.061C12.5959 34.8319 13.0712 33.5959 13.4922 32.4415C14.3002 32.034 15.2101 31.8982 16.0656 31.6266ZM14.4292 33.365C14.2255 34.1052 14.0286 34.8522 13.8249 35.5992C14.3817 36.1561 14.9453 36.7197 15.5088 37.2698C16.2625 37.066 17.0095 36.8623 17.7632 36.6654C17.9533 35.9252 18.1434 35.1782 18.3268 34.4312C17.77 33.8743 17.2132 33.3175 16.6564 32.7606C15.9162 32.9644 15.1693 33.1613 14.4292 33.365Z" fill="white"/>
</svg>
