<svg width="51" height="51" viewBox="0 0 51 51" fill="none" xmlns="http://www.w3.org/2000/svg">
<path fill-rule="evenodd" clip-rule="evenodd" d="M36.0491 1.44709C42.4544 3.20327 46.6543 5.80349 48.8461 12.7873C51.0447 19.744 50.6635 27.2247 49.8331 34.3787C48.6419 41.4443 45.2657 46.7468 38.6085 48.68C30.7126 51.3619 19.7739 51.3619 11.878 48.68C5.22084 46.7468 1.84463 41.4443 0.653427 34.3787C-0.177011 27.2247 -0.558196 19.744 1.64723 12.7873C3.83224 5.80349 8.03207 3.20327 14.4441 1.44709C21.0332 -0.206974 29.4601 -0.206974 36.0491 1.44709Z" fill="#E1322D"/>
<path fill-rule="evenodd" clip-rule="evenodd" d="M16.6768 24.6858C17.2078 24.5156 17.3848 24.6177 17.3779 25.1418C17.1669 25.8157 16.6564 26.442 15.9689 26.653C15.6762 26.6053 15.6014 26.299 15.6626 26.0403C15.7919 25.4686 16.2072 25.0125 16.6768 24.6858ZM37.6012 27.3405C37.2472 25.8225 35.1371 22.174 32.741 21.1598C32.1352 21.6091 31.7813 22.0243 30.9985 22.3238C31.3797 22.5416 31.7949 22.6982 32.1693 22.9296C32.9384 23.6716 32.4484 25.101 30.5697 24.2025C28.2825 22.9024 25.7436 23.0045 23.2659 22.9432C22.1564 22.6914 22.2312 21.1122 23.4429 21.0781C22.946 20.5744 22.5376 20.0027 22.1632 19.4037L20.053 19.9958C19.3655 19.002 17.589 18.5528 16.602 19.3152C16.602 20.1796 16.6088 21.0373 16.602 21.9018C14.4238 23.2563 13.641 24.8151 13.1032 26.5304C12.7629 26.5236 12.4225 26.51 12.0754 26.5441C10.0878 26.8708 10.4554 30.9005 11.5513 31.5063C12.0346 31.833 12.6267 31.7581 13.1781 31.7581C13.641 33.3782 15.0296 35.1752 16.3637 36.1758C16.459 36.2711 16.6224 36.3391 16.602 36.4957C16.6088 37.3125 16.602 38.1362 16.602 38.953C16.5747 39.8855 16.8334 41.0631 17.9497 41.1924C18.5147 41.3218 20.4615 41.2877 20.9516 41.0835C22.0202 40.6002 21.8501 39.6813 21.9045 38.7828C24.0351 39.3137 26.7987 39.2729 28.9292 38.7011L29.1811 38.6943C29.1879 39.0755 29.1674 39.4567 29.1947 39.8311C29.29 40.3484 29.6031 40.8317 30.0864 41.0563C30.6445 41.3286 32.8295 41.3286 33.4285 41.1176C33.9867 40.8589 34.4632 40.3075 34.4292 39.6677C34.4292 38.4357 34.436 37.2036 34.4292 35.9784C38.4112 31.5607 36.6074 31.3837 37.8666 28.9877C39.9359 28.4976 40.426 25.9519 39.0714 24.4475C39.1531 25.6115 38.7924 26.7891 37.6012 27.3405ZM15.2202 20.6085V19.3764C15.1997 18.9476 15.3835 18.5051 15.7579 18.2193C15.7987 18.1852 15.8396 18.158 15.8872 18.124C16.7109 17.559 17.7523 17.4365 18.7189 17.6407C19.3451 17.7768 19.9577 18.0559 20.4615 18.4439L21.7888 18.0695V18.0763C22.3674 17.9129 23.0004 18.1376 23.334 18.6685C23.5109 18.9476 23.6879 19.2063 23.8649 19.4445C24.0351 19.6759 24.2257 19.9006 24.4299 20.1116C24.6681 20.3566 24.811 20.6765 24.8247 21.0373C24.8247 21.2347 24.7906 21.4185 24.7226 21.5887C26.3562 21.6227 27.9967 21.718 29.6099 22.2625C29.6371 21.7316 29.9707 21.2347 30.5016 21.0305C30.8692 20.8875 31.1278 20.6765 31.4137 20.4451C31.5771 20.3158 31.7472 20.1728 31.9242 20.0435C32.3054 19.7712 32.8159 19.6895 33.2788 19.8869C34.5517 20.4247 35.702 21.4934 36.6346 22.6778C37.0294 23.1815 37.3901 23.7124 37.7033 24.2365C37.7509 23.9302 37.8939 23.6375 38.1457 23.4129C38.7107 22.9024 39.5888 22.95 40.0993 23.515C40.6098 24.08 40.9365 24.7402 41.0999 25.4209C41.2701 26.1288 41.2564 26.8776 41.059 27.5651C40.8616 28.2798 40.4805 28.9333 39.9155 29.4438C39.616 29.7093 39.2688 29.9407 38.8808 30.1109C38.7447 30.4852 38.7107 30.7984 38.6698 31.1183C38.5201 32.3435 38.3635 33.5824 35.8109 36.5025C35.8109 37.0062 35.8109 37.5031 35.8109 38.0068C35.8109 38.5378 35.8109 39.0687 35.8109 39.6064C35.8382 40.2327 35.6476 40.8044 35.314 41.2809C35.0077 41.7302 34.5653 42.0978 34.082 42.336C34.0207 42.37 33.9527 42.4041 33.8846 42.4245C33.4285 42.5878 32.496 42.6627 31.6383 42.6491C30.7943 42.6355 29.9298 42.5198 29.4806 42.302C29.0381 42.0909 28.6705 41.771 28.3915 41.3898C28.16 41.0767 27.9899 40.7092 27.8878 40.3348C27.0913 40.4573 26.2541 40.5254 25.4101 40.539C24.6545 40.5458 23.8989 40.5049 23.1774 40.4165C23.0345 41.1652 22.6397 41.8391 21.5165 42.3428L21.4893 42.3564C21.1013 42.5198 20.3662 42.6151 19.6446 42.6423C18.9844 42.6627 18.2628 42.6423 17.8204 42.5742H17.7864C16.813 42.4585 16.1663 41.9412 15.7511 41.2469C15.3495 40.5798 15.2134 39.763 15.2202 39.0551C15.2202 39.021 15.2134 38.987 15.2134 38.953C15.2134 35.0935 15.2202 39.94 15.2202 38.1838C15.2202 37.8026 15.2202 37.4214 15.2202 37.0334C14.5259 36.4617 13.8384 35.7265 13.2666 34.9301C12.8514 34.3583 12.4906 33.7457 12.2115 33.1331C11.7827 33.1059 11.3334 33.0038 10.8706 32.7111C10.0946 32.2754 9.55004 31.2204 9.35945 30.0632C9.27096 29.5187 9.24374 28.9401 9.305 28.3819C9.36626 27.7693 9.52962 27.1771 9.80871 26.6666C10.2307 25.8974 10.8978 25.3324 11.8576 25.1759C11.8848 25.1759 11.9188 25.1691 11.9529 25.1691L12.123 25.1555C12.3681 24.5224 12.6812 23.903 13.0964 23.2972C13.6206 22.5348 14.3012 21.8201 15.2202 21.1598V20.6085Z" fill="white"/>
<path fill-rule="evenodd" clip-rule="evenodd" d="M27.4181 18.9748C29.113 19.4989 31.264 18.6753 32.4892 17.4841C34.9805 14.7681 34.4973 11.1673 31.6248 9.03673C29.644 7.74343 26.8463 7.80469 25.0425 9.41111C23.4769 10.6432 23.0481 12.3108 23.1162 14.2031C23.2387 16.463 25.2603 18.5868 27.4181 18.9748ZM22.17 11.0856C22.5376 10.085 23.1502 9.17287 24.0964 8.40369L24.1236 8.37647C25.2535 7.36905 26.683 6.83811 28.1396 6.75643C29.6167 6.67475 31.1279 7.05593 32.3803 7.87956L32.4484 7.92721C32.673 8.09058 32.8976 8.28117 33.1155 8.47857C34.47 9.71742 35.2664 11.2762 35.4434 12.9098C35.6272 14.5435 35.1847 16.2452 34.0548 17.7563C33.9119 17.9469 33.7553 18.1443 33.5715 18.3485C33.5375 18.3894 33.4966 18.437 33.4558 18.4779C32.6594 19.2538 31.5499 19.9005 30.3791 20.2408C29.2968 20.5608 28.1396 20.6288 27.0778 20.3157C25.7096 20.0434 24.4027 19.247 23.4361 18.1784C22.4695 17.0961 21.8093 15.7143 21.7344 14.2712H21.7412L21.7344 14.2508C21.6935 13.1345 21.8092 12.0794 22.17 11.0856Z" fill="white"/>
</svg>
