<svg width="119" height="119" viewBox="0 0 119 119" fill="none" xmlns="http://www.w3.org/2000/svg">
<path d="M47.75 85.9375V33.0625L83 59.5L47.75 85.9375ZM59.5 0.75C51.7848 0.75 44.1452 2.26961 37.0173 5.22208C29.8895 8.17454 23.4129 12.502 17.9575 17.9575C6.93971 28.9752 0.75 43.9185 0.75 59.5C0.75 75.0815 6.93971 90.0248 17.9575 101.043C23.4129 106.498 29.8895 110.825 37.0173 113.778C44.1452 116.73 51.7848 118.25 59.5 118.25C75.0815 118.25 90.0248 112.06 101.043 101.043C112.06 90.0248 118.25 75.0815 118.25 59.5C118.25 51.7848 116.73 44.1452 113.778 37.0173C110.825 29.8895 106.498 23.4129 101.043 17.9575C95.5871 12.502 89.1105 8.17454 81.9827 5.22208C74.8548 2.26961 67.2152 0.75 59.5 0.75Z" fill="white"/>
</svg>
