<svg width="51" height="51" viewBox="0 0 51 51" fill="none" xmlns="http://www.w3.org/2000/svg">
<path fill-rule="evenodd" clip-rule="evenodd" d="M36.0447 1.24696C42.4448 3.00148 46.6474 5.59984 48.8365 12.5845C51.0339 19.5357 50.6579 27.0133 49.8308 34.1651C48.636 41.2333 45.2605 46.5302 38.6097 48.4686C30.714 51.1505 19.7687 51.1505 11.8731 48.4686C5.2223 46.5302 1.8468 41.2333 0.652006 34.1651C-0.17516 27.0133 -0.5595 19.5357 1.64628 12.5845C3.82698 5.59984 8.03801 3.00148 14.4381 1.24696C21.0304 -0.415654 29.4524 -0.415654 36.0447 1.24696Z" fill="#E1322D"/>
<path fill-rule="evenodd" clip-rule="evenodd" d="M25.709 7.76366C26.0098 7.77201 26.3106 7.80543 26.6197 7.80543L26.7116 7.82214C27.004 7.83885 27.2881 7.87227 27.5722 7.87227C27.6558 7.87227 27.7393 7.88062 27.8145 7.89733C27.7477 7.89733 27.6725 7.89733 27.6056 7.90569C28.1153 7.93911 28.6082 8.06443 29.1012 8.15634L29.1263 8.16469C29.1597 8.20646 29.2015 8.22317 29.2516 8.19811H29.285C29.3101 8.24824 29.3519 8.25659 29.4103 8.23988L29.4438 8.23153L29.5273 8.2733L29.5524 8.28166C29.7362 8.33179 29.9284 8.38192 30.1122 8.42369C30.3963 8.51559 30.6803 8.61585 30.9644 8.70776L30.9895 8.71611C31.1817 8.79966 31.3905 8.84979 31.5827 8.93334C31.7247 8.98346 31.8584 9.05866 32.0088 9.08372L32.0924 9.13385C32.343 9.26753 32.6104 9.36779 32.8694 9.48476L32.953 9.51818C32.9697 9.60172 33.0699 9.62679 33.1451 9.63514L33.2203 9.67692C34.5572 10.362 35.8188 11.2142 36.9384 12.2251C38.8183 13.9045 40.2805 16.0266 41.3082 18.3242L41.3165 18.3493C41.4001 18.5999 41.5254 18.8255 41.609 19.0761C41.7343 19.4855 41.9097 19.8782 42.0184 20.2876C42.0351 20.4129 42.0768 20.5382 42.1186 20.6635C42.1938 20.8891 42.2272 21.1398 42.3191 21.3654L42.3275 21.4238L42.3526 21.5074L42.3609 21.5408C42.4361 22.0254 42.5447 22.5016 42.5949 22.9945C42.6199 23.1951 42.6366 23.3956 42.6701 23.5961L42.6784 23.6713C42.6701 23.7966 42.6868 23.9219 42.7035 24.0473L42.7118 24.1392C42.7286 24.4232 42.7369 24.7073 42.7453 24.9914V25.5762C42.7369 25.8436 42.7202 26.1109 42.7202 26.3783L42.7035 26.4785C42.6784 26.6038 42.6701 26.7292 42.6784 26.8545L42.6701 26.9213C42.5865 27.5981 42.4946 28.2665 42.3526 28.9348L42.3275 29.0685L42.3191 29.127C42.2774 29.1604 42.2607 29.2106 42.2857 29.2607V29.2857C42.2105 29.3442 42.1855 29.4445 42.2105 29.528L42.2022 29.5531C42.0852 30.0293 41.9348 30.4972 41.7761 30.9651L41.7677 30.9901C41.6591 31.2658 41.5755 31.5499 41.4586 31.8173L41.4168 31.9259C41.3249 32.0763 41.2747 32.2517 41.1996 32.4105C41.116 32.611 41.0157 32.7948 40.9238 32.9869L40.9071 33.012C40.4392 33.9478 39.8961 34.8501 39.2695 35.6939C38.9771 36.0866 38.6512 36.4542 38.3504 36.8385L38.317 36.872C38.0079 37.1644 37.7405 37.4986 37.4313 37.7826C37.2475 37.9664 37.0387 38.1252 36.8716 38.3173L36.8298 38.3508C36.4789 38.6265 36.1363 38.9272 35.777 39.203C35.2674 39.5873 34.7326 39.9298 34.1979 40.264C33.7968 40.498 33.3958 40.7152 32.978 40.9241C32.6355 41.1246 32.2511 41.2415 31.9086 41.4337C31.5994 41.5423 31.2986 41.6593 30.9895 41.7762L30.9644 41.7846C30.4965 41.9433 30.0286 42.077 29.5524 42.2023L29.5273 42.2107C29.4354 42.1856 29.3435 42.2191 29.285 42.2859H29.26C29.2015 42.2692 29.1597 42.2775 29.1263 42.3277H29.1012C29.0511 42.3026 29.0093 42.311 28.9675 42.3527H28.9257C28.2406 42.5031 27.5388 42.6034 26.8369 42.6702H26.8035C26.6698 42.6786 26.5362 42.6869 26.4025 42.7036L26.3356 42.712C25.6087 42.7538 24.8735 42.7538 24.1466 42.7204L24.0797 42.7036C23.946 42.6869 23.804 42.6786 23.6703 42.6869L23.5951 42.6702C23.0604 42.6034 22.5257 42.5449 21.9909 42.4446C21.7904 42.4029 21.5899 42.3527 21.381 42.3277L21.3225 42.3193C21.0969 42.2274 20.8463 42.2023 20.6207 42.1188C20.487 42.077 20.3533 42.0353 20.2113 42.0102C20.0024 41.9601 19.8019 41.8849 19.6013 41.818L19.5763 41.8097C19.1752 41.6593 18.7742 41.5256 18.3815 41.3585L18.3313 41.3334C16.9945 40.757 15.7245 40.0217 14.5798 39.1361C12.9506 37.8745 11.5218 36.3456 10.4357 34.5911C10.1098 34.0981 9.84244 33.5718 9.56672 33.0538L9.55837 33.0287C9.41633 32.7363 9.27429 32.4522 9.14896 32.1598L9.1239 32.1013C9.05706 31.9426 8.99021 31.7839 8.93173 31.6335C8.83146 31.4079 8.77298 31.1739 8.67272 30.9484L8.66436 30.9149C8.58081 30.6727 8.49726 30.422 8.4137 30.1714C8.36357 29.9625 8.31344 29.7453 8.2466 29.5448L8.23824 29.503C8.21318 29.3609 8.17976 29.2189 8.12963 29.0852L8.11292 29.0268C8.07114 28.7343 8.0043 28.4419 7.96252 28.1495L7.95417 28.1244C7.87062 27.6064 7.82048 27.0801 7.77871 26.5621L7.77035 26.4618C7.75364 26.2028 7.74529 25.9438 7.72858 25.6932V24.9914C7.74529 24.6906 7.75364 24.3982 7.77035 24.0974L7.77871 24.0389C7.79542 23.9052 7.80377 23.7632 7.79542 23.6295L7.80377 23.5877C7.86226 23.1282 7.90404 22.6687 7.98759 22.2092C8.02101 22.0087 8.05443 21.8165 8.08785 21.6244V21.5909C8.12963 21.5492 8.13798 21.5074 8.12127 21.4573V21.4322C8.16305 21.3988 8.17976 21.357 8.15469 21.3069L8.16305 21.2734C8.20482 21.2317 8.22153 21.1732 8.19647 21.1147V21.0813L8.23824 20.9977L8.2466 20.9727C8.36357 20.4964 8.49726 20.0202 8.66436 19.5607L8.67272 19.5356C8.82311 19.143 8.94844 18.7419 9.1239 18.3576L9.13225 18.3409C9.25758 18.0568 9.39126 17.7728 9.51659 17.4971L9.52495 17.472C9.63356 17.3216 9.69205 17.1462 9.78396 16.9874C10.1599 16.294 10.5693 15.6172 11.0456 14.9822C11.1876 14.765 11.3631 14.5645 11.5135 14.3473L11.5386 14.3055C11.6137 14.3055 11.6722 14.2303 11.6555 14.1468L11.6973 14.1217C11.9897 13.8126 12.2571 13.4784 12.5495 13.1776C13.8529 11.8241 15.3652 10.6711 17.0279 9.78553C17.1616 9.71034 17.3036 9.66021 17.429 9.5683L17.454 9.55995C17.7381 9.42627 18.0306 9.28424 18.323 9.15892L18.4483 9.09208C18.7825 8.9584 19.1167 8.84979 19.4509 8.70776L19.476 8.6994L19.5679 8.68269L19.6013 8.66598C20.1695 8.44875 20.7711 8.33179 21.3559 8.16469L21.381 8.15634C21.4311 8.1814 21.4729 8.17304 21.5063 8.13127L21.5397 8.12292C22.2834 7.99759 23.027 7.86391 23.7706 7.78872L23.8792 7.7553C24.1549 7.7553 24.4306 7.73859 24.7064 7.73859H24.7983C25.0991 7.7553 25.3998 7.74695 25.709 7.76366ZM20.1026 24.1893C19.8603 24.1893 19.6097 24.1893 19.3674 24.206C19.1251 24.1976 18.8911 24.1976 18.6572 24.2561C18.4567 24.2979 18.2729 24.3898 18.089 24.4817C18.0222 24.5235 17.9386 24.5653 17.8969 24.6321L17.8551 24.6655C17.7131 24.7324 17.6462 24.8744 17.5627 24.9914C17.3454 25.3757 17.3371 25.8352 17.4206 26.2529H17.454L17.4624 26.2864C17.4875 26.5537 17.6963 26.7542 17.8802 26.9213H17.9136L17.9386 26.938C17.9637 27.0299 18.0473 27.0801 18.1308 27.0968L18.1642 27.1051C18.1392 27.1636 18.2478 27.2137 18.2812 27.1636L18.3063 27.197C18.5987 27.2889 18.9078 27.3224 19.2086 27.3307C19.334 27.3307 19.4593 27.3725 19.5763 27.3307L19.6348 27.3391C19.7851 27.3892 19.9606 27.3641 20.1194 27.3976C20.1194 28.0576 20.1361 28.7176 20.111 29.3777C19.735 29.386 19.359 29.3777 18.9747 29.3777V29.4111H18.9162C18.8577 29.386 18.7992 29.3777 18.7491 29.3944C18.5904 29.4194 18.4316 29.4528 18.2896 29.5364L18.2561 29.5615C17.7047 29.787 17.3371 30.3719 17.3454 30.9651C17.3454 31.3745 17.5376 31.7755 17.8467 32.0512C17.9219 32.1097 17.9804 32.1932 18.0723 32.2183L18.1141 32.2434C18.1642 32.3269 18.2645 32.3436 18.3397 32.377C18.8076 32.5358 19.3089 32.4689 19.7935 32.5274C19.8938 32.5525 20.0274 32.5024 20.1194 32.5609C20.1194 33.1039 20.1277 33.647 20.1194 34.19H20.1444C20.1194 34.3906 20.1277 34.5994 20.1361 34.8L20.1778 34.8417L20.1277 34.8334C20.0943 35.343 20.3115 35.8527 20.6959 36.1952H20.7126L20.7961 36.2537C20.8295 36.3289 20.9131 36.354 20.9799 36.3874C21.1805 36.4793 21.3977 36.5461 21.6233 36.5378L21.6818 36.521C22.1831 36.521 22.6593 36.2286 22.9434 35.8276V35.8025C23.0437 35.7273 23.0604 35.5937 23.1022 35.4767V35.4433C23.1606 35.2595 23.169 35.0673 23.1606 34.8751L23.169 34.8501C23.169 34.7916 23.169 34.7248 23.169 34.6663L23.2024 34.6078C23.2024 34.2987 23.2275 33.9895 23.2191 33.6888C23.2024 33.3128 23.2024 32.9285 23.2191 32.5525C24.1131 32.5274 25.0072 32.5525 25.9012 32.5441C26.0181 32.5358 26.1351 32.5107 26.2521 32.5024C26.4693 32.5024 26.6866 32.494 26.9038 32.5024L26.9121 32.4773L26.9706 32.4689C27.0375 32.5024 27.1127 32.5024 27.1879 32.5024C27.6808 32.494 28.1738 32.494 28.6667 32.4857C29.0427 32.4857 29.4354 32.5107 29.8114 32.4522C29.9033 32.4021 30.0036 32.3603 30.0621 32.2684L30.1205 32.2267L30.1456 32.235C30.3127 32.118 30.5132 32.0011 30.6051 31.8089L30.6302 31.7671C30.8391 31.5416 30.8976 31.2241 30.9226 30.9233C30.9477 30.3802 30.6219 29.8622 30.1456 29.6032C29.9534 29.5197 29.778 29.386 29.5607 29.3609C27.4469 29.3526 25.333 29.3526 23.2191 29.3526C23.1941 29.2189 23.2024 29.0769 23.2024 28.9432C23.2191 28.4252 23.1941 27.8988 23.2108 27.3808C23.5617 27.3725 23.9126 27.3641 24.2635 27.3725V27.3391C24.4808 27.3641 24.7064 27.3474 24.932 27.3474C25.592 27.3641 26.2521 27.3224 26.9121 27.3307V27.3057C27.1294 27.3307 27.355 27.314 27.5722 27.314C28.0568 27.3307 28.5331 27.3057 29.0177 27.2806C29.6944 27.2889 30.3545 27.1135 30.9811 26.8628C31.4156 26.6874 31.8501 26.4785 32.2344 26.2028L32.2678 26.1777C32.3932 26.1276 32.4934 26.0274 32.602 25.9438C32.8611 25.76 33.095 25.5344 33.3206 25.3088C33.5796 25.0331 33.847 24.7491 34.0308 24.4149L34.0642 24.3815C34.131 24.3146 34.1979 24.2227 34.2062 24.1308L34.2146 24.1057C34.2731 24.0723 34.3065 24.0138 34.3399 23.9554C34.6574 23.3872 34.9164 22.769 35.0585 22.1256C35.2506 21.3821 35.2674 20.6134 35.2005 19.8531C35.142 19.5523 35.1002 19.2516 35.025 18.9592C34.8579 18.366 34.624 17.7895 34.3065 17.2548C34.2898 17.2213 34.2564 17.1879 34.2146 17.1629L34.2062 17.1378C34.2146 17.0793 34.1645 17.0375 34.1478 16.9874H34.1143L34.0976 16.9707C34.0809 16.8621 33.9974 16.7869 33.9389 16.695C33.5044 16.1018 32.978 15.5754 32.3932 15.1326C32.3514 15.0992 32.3096 15.0742 32.2595 15.0574L32.2344 15.024C31.7832 14.6815 31.2652 14.4559 30.7388 14.2637C30.438 14.1551 30.1289 14.0549 29.8114 14.0298C29.7947 13.9546 29.6443 13.9546 29.5942 14.0131L29.5607 14.0047L29.544 13.9797C29.2265 13.9379 28.9007 13.9462 28.5832 13.9295C28.1905 13.9379 27.7978 13.8878 27.4051 13.9295C27.238 13.8961 27.0792 13.9212 26.9121 13.9128C26.6949 13.9128 26.4693 13.9128 26.2521 13.9128C26.1435 13.9128 26.0432 13.9128 25.9346 13.9045C25.5001 13.9045 25.0573 13.9128 24.6228 13.9045C24.5058 13.9128 24.3889 13.9212 24.2635 13.9128C24.0463 13.9128 23.8291 13.9128 23.6035 13.9128C23.4197 13.9212 23.2275 13.8961 23.0353 13.9212C22.6928 13.8961 22.3502 13.9295 22.0076 13.9295C21.6567 13.9462 21.2724 13.9295 20.9549 14.1133L20.888 14.1635C20.7627 14.1802 20.6792 14.2888 20.5872 14.3723C20.4619 14.506 20.3199 14.6564 20.2781 14.8402L20.2697 14.8653L20.228 14.8736L20.2113 14.9071L20.228 14.9405C20.2029 15.0073 20.1946 15.0909 20.1778 15.1661C20.1444 15.4251 20.1695 15.6841 20.1361 15.9431C20.1277 16.294 20.1277 16.6449 20.1277 16.9958C20.111 17.096 20.1194 17.2046 20.1194 17.3049C20.1194 18.4328 20.1026 19.5607 20.111 20.6886C20.1026 21.8583 20.1194 23.0196 20.1026 24.1893ZM24.7983 9.00853H24.7064L24.3972 9.01688C24.297 9.01688 24.1883 9.02524 24.0714 9.02524C24.0212 9.04195 23.9628 9.0503 23.9043 9.05866C23.5283 9.09208 23.1857 9.14221 22.8432 9.19234C22.7011 9.2174 22.3251 9.28424 21.9157 9.35108L21.8572 9.37614C21.8071 9.39285 21.757 9.40121 21.7068 9.41792C21.64 9.42627 21.5732 9.43463 21.5063 9.44298C21.3559 9.48476 21.2139 9.51818 21.0718 9.55995C20.7376 9.6435 20.4034 9.72705 20.0943 9.84401L20.0609 9.86072C19.9857 9.88579 19.9188 9.91085 19.8353 9.92756H19.8269C19.6515 9.9944 19.5178 10.0445 19.3841 10.0947C19.2838 10.1364 19.1752 10.1782 18.9246 10.2785C18.8911 10.2952 18.8494 10.3119 18.8159 10.3286C18.6739 10.3871 18.4567 10.4957 18.2394 10.596L18.064 10.6795C17.947 10.7463 17.8217 10.8048 17.7047 10.8633L17.6044 10.9134C16.8441 11.3228 16.1172 11.7907 15.4321 12.3087C14.7386 12.8351 14.0869 13.4199 13.4686 14.0632L13.4519 14.0716C13.3015 14.2303 13.1511 14.3974 13.0007 14.5729L12.7668 14.8402C12.725 14.9154 12.6749 14.9906 12.6164 15.0574C12.5662 15.1243 12.4994 15.1911 12.4409 15.2412C12.3908 15.3081 12.3323 15.3833 12.2822 15.4501C12.2237 15.5253 12.1652 15.5922 12.1067 15.6841L12.0649 15.7425C11.8644 16.0099 11.6639 16.3107 11.455 16.6365C11.2628 16.954 11.079 17.2715 10.8952 17.6057C10.8701 17.6558 10.8534 17.6809 10.8451 17.7059C10.7866 17.8229 10.7281 17.9482 10.6445 18.0819C10.5693 18.2657 10.6863 17.99 10.561 18.2657C10.4858 18.4412 10.4022 18.6166 10.3354 18.7753C10.3187 18.8088 10.302 18.8505 10.2853 18.884L10.2769 18.9007C10.185 19.1095 10.0931 19.3602 10.0012 19.6108L9.85916 20.0035C9.7756 20.2291 9.70876 20.4296 9.65863 20.6134C9.60014 20.8139 9.54166 21.0395 9.48317 21.2651C9.47482 21.3319 9.46646 21.4071 9.44975 21.474C9.4414 21.5074 9.43304 21.5408 9.42468 21.5659L9.41633 21.5826C9.40797 21.6327 9.39962 21.6828 9.38291 21.733C9.38291 21.758 9.37455 21.7915 9.3662 21.8165C9.35784 21.875 9.33278 21.9418 9.31607 21.992L9.291 22.1256L9.24087 22.4264V22.4431C9.19074 22.7021 9.15732 22.9862 9.1239 23.2619C9.11554 23.3705 9.09883 23.4708 9.07377 23.688C9.07377 23.7548 9.07377 23.83 9.06541 23.9052C9.06541 24.0222 9.0487 24.1308 9.04034 24.2227L9.03199 24.2311L9.00692 24.9579V25.6932C9.01528 25.8101 9.02363 25.9856 9.02363 26.1527L9.03199 26.3365C9.04035 26.3783 9.0487 26.42 9.0487 26.4618C9.07377 26.7375 9.09048 26.9882 9.11554 27.2054C9.14061 27.456 9.17403 27.6816 9.19909 27.8738L9.20745 27.9156L9.2158 27.9573C9.22416 28.0325 9.25758 28.1996 9.291 28.3584C9.30771 28.467 9.33278 28.5756 9.35784 28.7427C9.38291 28.8262 9.40797 28.9014 9.42468 28.9766C9.44139 29.0267 9.45811 29.1019 9.47482 29.2022C9.50824 29.3108 9.54166 29.4278 9.56672 29.5448L9.64192 29.8372L9.6837 29.9708C9.73383 30.1212 9.78396 30.2716 9.84244 30.4304C9.8508 30.4471 9.85916 30.4721 9.86751 30.4972C9.926 30.6309 9.96777 30.7646 10.0095 30.8899L10.0764 31.0904L10.1182 31.1739C10.1767 31.3076 10.2351 31.4497 10.302 31.6168L10.3187 31.6502C10.3772 31.7922 10.5025 32.0512 10.6195 32.3102C10.6947 32.4522 10.7699 32.5943 10.8451 32.7363C11.054 33.1373 11.2628 33.53 11.4801 33.8559L11.5218 33.9227C12.0064 34.708 12.5746 35.4516 13.2096 36.1451C13.8613 36.8636 14.5882 37.5236 15.3569 38.1252V38.1335C15.8833 38.5346 16.4347 38.9105 17.0029 39.2447C17.5877 39.5873 18.1893 39.8881 18.7992 40.1554L18.8911 40.1972C19.1502 40.3058 19.4008 40.3977 19.6515 40.4896C19.7601 40.523 19.8603 40.5648 19.969 40.5982L20.0692 40.6316C20.1946 40.6818 20.3199 40.7235 20.4786 40.7653C20.5538 40.782 20.6541 40.7987 20.7544 40.8322C20.8463 40.8572 20.9382 40.8823 21.0301 40.9157L21.2139 40.9658C21.3559 40.9992 21.498 41.0327 21.6484 41.0828C21.8071 41.1079 21.9408 41.1329 22.0828 41.1663L22.2332 41.1914V41.1998C22.5758 41.2583 23.0437 41.3167 23.5199 41.3752L23.7539 41.4086C23.8124 41.4086 23.8792 41.4086 23.9377 41.4086C24.0296 41.417 24.1131 41.4253 24.2051 41.4337L24.297 41.4504C24.6312 41.4671 24.9487 41.4755 25.2495 41.4755C25.5502 41.4755 25.8677 41.4671 26.1936 41.4504L26.2187 41.4421C26.3189 41.4337 26.4108 41.417 26.5111 41.417L26.7116 41.4003C27.0124 41.3752 27.3383 41.3334 27.7059 41.2833C27.99 41.2415 28.274 41.1914 28.5665 41.1329C28.5915 41.1162 28.625 41.1079 28.6584 41.0995C28.7085 41.0828 28.767 41.0661 28.8171 41.0577C28.8422 41.0577 28.8673 41.0494 28.884 41.041C28.9341 41.0243 28.9842 41.0076 29.0344 40.9909C29.1513 40.9575 29.2683 40.9324 29.3936 40.9324C29.5691 40.8823 29.7362 40.8322 29.9033 40.782C30.1038 40.7235 30.3127 40.6567 30.5299 40.5815C30.6469 40.5397 30.7555 40.5063 30.8642 40.4645C31.0313 40.3977 31.19 40.3392 31.3989 40.264C31.566 40.1805 31.7247 40.1136 31.8918 40.0384C32.0422 39.9716 32.201 39.9048 32.3263 39.8296C32.3514 39.8129 32.3848 39.7961 32.4182 39.7794C32.5686 39.7042 32.7608 39.604 32.9864 39.4787C33.212 39.3617 33.3791 39.2698 33.5044 39.1946L33.5211 39.1862C33.7216 39.0609 33.9389 38.9273 34.2898 38.6933H34.2981C34.5404 38.5262 34.7827 38.3591 34.9916 38.192H35L35.0167 38.1753C35.1754 38.0667 35.3843 37.8912 35.5932 37.7158C35.7102 37.6155 35.8355 37.5153 35.9608 37.415L36.0193 37.3649C36.1196 37.2563 36.2282 37.1644 36.3368 37.0641C36.3869 37.0223 36.4287 36.9806 36.4789 36.9304C36.5123 36.897 36.5373 36.872 36.5624 36.8469C36.6961 36.7216 36.8298 36.5879 36.9551 36.4459C37.0888 36.3038 37.2225 36.1701 37.3645 36.0281C37.4146 35.9613 37.5567 35.7858 37.6987 35.6187C37.8825 35.4015 38.058 35.1843 38.2418 34.9336V34.942L38.2502 34.9253C38.5342 34.5493 38.8016 34.1483 39.0606 33.7222C39.3113 33.3128 39.5452 32.895 39.7625 32.4689L39.7708 32.4522C39.8209 32.3353 39.8042 32.377 39.846 32.3018C39.8544 32.2684 39.8711 32.235 39.8878 32.2099C39.9546 32.0763 40.0131 31.9426 40.0298 31.9008L40.0382 31.8925C40.0549 31.8507 40.0465 31.859 40.08 31.7755C40.1301 31.6585 40.1802 31.5332 40.2638 31.3912C40.2721 31.3661 40.2805 31.341 40.2888 31.316C40.3055 31.2742 40.364 31.1155 40.4225 30.9484C40.4643 30.8398 40.4977 30.7311 40.5896 30.5223C40.6565 30.3217 40.7233 30.1129 40.7901 29.8957C40.8319 29.7369 40.8821 29.5698 40.9322 29.3777C40.9405 29.2607 40.9572 29.1354 40.999 29.0184C41.0074 28.9933 41.0157 28.9599 41.0241 28.9348L41.0408 28.8764H41.0492C41.0575 28.8179 41.0826 28.7594 41.0993 28.7093L41.1076 28.6675C41.1661 28.3751 41.2246 28.0659 41.2747 27.7401C41.3249 27.4143 41.3667 27.0884 41.4001 26.7709L41.4084 26.7542C41.4084 26.7041 41.4084 26.6456 41.4084 26.5955C41.4168 26.4702 41.4251 26.3699 41.4418 26.278C41.4502 26.0942 41.4586 25.8686 41.4669 25.643L41.4753 25.6013V24.9914L41.4669 24.6906C41.4586 24.5653 41.4502 24.4399 41.4418 24.2394V24.206C41.4251 24.1141 41.4168 24.0138 41.4084 23.9303C41.4084 23.8718 41.4084 23.8133 41.4084 23.7632C41.3917 23.6462 41.375 23.5293 41.3583 23.4123L41.3332 23.17L41.3249 23.1199C41.2998 22.8525 41.2497 22.5685 41.1996 22.276C41.1661 22.1256 41.1411 21.9753 41.116 21.8165L41.1076 21.7998C41.0993 21.7664 41.0909 21.7413 41.0826 21.7079C41.0324 21.5492 40.999 21.4071 40.9656 21.2651C40.9489 21.1983 40.9322 21.1231 40.9155 21.0646C40.8904 21.0061 40.8737 20.9476 40.857 20.8975C40.8486 20.8724 40.8403 20.8474 40.8319 20.8223C40.8069 20.7304 40.7818 20.6385 40.7651 20.5382C40.7233 20.3878 40.6481 20.1957 40.5813 19.9952C40.5311 19.8615 40.481 19.7278 40.3974 19.4688C40.3891 19.4437 40.339 19.3268 40.2888 19.2182C40.2387 19.1012 40.1886 18.9842 40.1301 18.8088C39.6538 17.7393 39.0606 16.7033 38.3588 15.7175C37.6904 14.7901 36.9384 13.9379 36.0862 13.1776L36.0778 13.1692C35.5681 12.7014 35.025 12.2836 34.4653 11.8993C33.9055 11.515 33.3206 11.1557 32.7107 10.8382C32.5937 10.8048 32.4684 10.7547 32.3597 10.6879C32.3012 10.6544 32.2511 10.621 32.201 10.5876L32.084 10.5291C31.9002 10.4539 31.7164 10.3787 31.5326 10.2785C31.4072 10.245 31.307 10.1949 31.2067 10.1531L31.1315 10.1281L31.0897 10.103L30.8892 10.0362C30.7639 9.9944 30.6386 9.95263 30.5132 9.89414C30.3545 9.84401 30.1957 9.79389 30.037 9.7354C29.9869 9.71869 30.0621 9.74376 29.7529 9.6435L29.519 9.59337L29.26 9.51818C29.1597 9.50982 29.0594 9.49311 28.9675 9.45969C28.9257 9.45134 28.8756 9.44298 28.8338 9.43463C28.7754 9.41792 28.7169 9.39285 28.6667 9.36779L28.4328 9.32601C28.1236 9.25917 27.8145 9.20069 27.5304 9.17563C27.4469 9.17563 27.3633 9.15892 27.2881 9.14221C27.1461 9.13385 27.0291 9.1255 26.9121 9.11714L26.6698 9.09208C26.6114 9.09208 26.5529 9.08372 26.5027 9.07537H26.4944C26.3106 9.07537 26.1518 9.06701 25.9931 9.05866L25.7173 9.04195L25.6421 9.03359C25.4667 9.02524 25.3581 9.02524 25.2495 9.02524C25.0907 9.01688 24.9403 9.01688 24.815 9.00853H24.7983ZM24.5727 12.6345H24.6312C24.8651 12.6345 25.0991 12.6345 25.333 12.6345H25.8844C25.9179 12.6345 25.9513 12.6345 25.9847 12.6345H26.0098C26.0933 12.6429 26.1685 12.6429 26.227 12.6429C26.3356 12.6429 26.4526 12.6429 26.5779 12.6429C26.7116 12.6429 26.8369 12.6429 26.9456 12.6429H27.0291C27.1544 12.6429 27.2881 12.6345 27.4302 12.6512C27.6892 12.6345 27.9315 12.6429 28.1821 12.6512C28.2907 12.6512 28.4077 12.6596 28.508 12.6596C28.5581 12.6512 28.6082 12.6512 28.6584 12.6596C28.8088 12.668 28.8756 12.668 28.9425 12.668C29.1513 12.6763 29.3519 12.6847 29.5775 12.7014C29.6359 12.7014 29.6944 12.7014 29.7529 12.7014C29.803 12.7014 29.8615 12.7014 29.9117 12.7097C30.0286 12.7264 30.1373 12.7599 30.2459 12.8016C30.3712 12.8267 30.4965 12.8518 30.6135 12.8852C30.7806 12.9353 30.9477 12.9854 31.1148 13.0439L31.1733 13.0606C31.4657 13.1692 31.7665 13.2946 32.0757 13.445C32.3848 13.5953 32.6856 13.7708 32.9697 13.988C33.0031 14.0131 33.0365 14.0298 33.0699 14.0465C33.1034 14.0716 33.1284 14.0883 33.1618 14.1133C33.5044 14.3723 33.8219 14.6564 34.131 14.9655C34.4068 15.2412 34.6658 15.542 34.9081 15.8679C34.9331 15.9013 34.9582 15.9347 34.9833 15.9765C35.0418 16.0433 35.0919 16.1102 35.142 16.1853C35.2172 16.2772 35.2757 16.3775 35.3258 16.4861C35.3593 16.5362 35.401 16.6031 35.4345 16.6616C35.6183 16.9791 35.7687 17.2882 35.894 17.589C36.0193 17.873 36.1279 18.1989 36.2282 18.5414C36.2366 18.5748 36.2449 18.5999 36.2533 18.6333C36.3285 18.9257 36.3786 19.1847 36.4204 19.4437C36.4287 19.5106 36.4037 19.3268 36.4538 19.6359C36.4538 19.6693 36.4621 19.7111 36.4621 19.7445C36.5039 20.1873 36.5206 20.6218 36.4956 21.0562C36.4789 21.499 36.412 21.9502 36.3034 22.4014C36.2115 22.8024 36.0945 23.1784 35.9525 23.5376C35.8021 23.9052 35.635 24.2561 35.4512 24.582C35.4177 24.6488 35.376 24.7156 35.3175 24.7825C35.3091 24.8159 35.2924 24.8493 35.2757 24.8744C35.2089 24.9914 35.1253 25.1 35.0501 25.1919C34.8329 25.5344 34.5822 25.8101 34.3399 26.0775C34.3232 26.1026 34.2981 26.1276 34.2814 26.1443L34.2564 26.1694L34.2229 26.2028C34.1143 26.3198 33.989 26.4367 33.8219 26.5871C33.6715 26.7208 33.5128 26.8545 33.3624 26.9715L33.3457 26.9798L33.3122 27.0049C33.2036 27.0968 33.0866 27.1887 32.9279 27.2722C32.7023 27.431 32.46 27.573 32.2093 27.7067C31.9587 27.832 31.708 27.9406 31.4574 28.0492C31.1482 28.1662 30.8391 28.2748 30.5049 28.3584L30.5216 28.3667C30.5467 28.3834 30.5717 28.3918 30.5968 28.4085L30.6469 28.4336C30.6803 28.4503 30.7138 28.467 30.7472 28.4837C31.19 28.7176 31.566 29.0852 31.825 29.5197C32.059 29.9291 32.201 30.3969 32.1926 30.8815C32.201 30.9233 32.1926 30.9734 32.1926 31.0236C32.1759 31.2408 32.1425 31.4831 32.0673 31.7337C31.9838 32.0178 31.8501 32.3018 31.6412 32.5525C31.4574 32.8533 31.2318 33.0204 31.0145 33.1791C30.9978 33.1958 30.9728 33.2125 30.9477 33.2292L30.8809 33.2794H30.8725L30.8391 33.2961C30.6971 33.4298 30.5467 33.5049 30.4046 33.5801C30.2876 33.6386 30.1456 33.6888 30.0036 33.7138C29.6443 33.7639 29.2934 33.7639 28.9425 33.7639C28.8589 33.7639 28.767 33.7639 28.6834 33.7639C28.4161 33.7639 28.1404 33.7639 27.8563 33.7639L27.3132 33.7723C27.2714 33.7723 27.2296 33.7723 27.1879 33.7723H27.1628C27.1127 33.7723 27.0709 33.7723 27.0291 33.7723C26.9706 33.7723 26.9121 33.7723 26.8537 33.7723C26.6949 33.7639 26.5362 33.7723 26.3774 33.7723H26.3607C26.3189 33.7807 26.2771 33.7807 26.2437 33.789C26.1769 33.7974 26.11 33.8057 25.9847 33.8141V33.8057L25.9179 33.8141C25.5252 33.8141 25.1325 33.8141 24.7481 33.8141H24.4891C24.4891 33.9812 24.4891 34.1399 24.4808 34.2987L24.4724 34.566C24.4808 34.6746 24.4641 34.7916 24.439 34.9086V34.9503C24.439 35.0506 24.439 35.1592 24.4306 35.2595C24.4139 35.3931 24.3972 35.5352 24.3554 35.6856C24.3471 35.7608 24.322 35.836 24.297 35.9111V35.9195C24.3053 35.9028 24.297 35.9111 24.297 35.9195C24.2385 36.1284 24.1716 36.3456 23.9795 36.5628C23.7288 36.9221 23.3862 37.2312 22.9935 37.4484C22.6426 37.6406 22.2583 37.7576 21.8489 37.7826C21.7904 37.7993 21.7319 37.7993 21.6734 37.8077C21.4395 37.8161 21.2139 37.791 20.9966 37.7325C20.8045 37.6907 20.629 37.6239 20.4619 37.5487L20.3951 37.5236C20.2363 37.4484 20.0776 37.3649 19.9188 37.2061C19.8938 37.1811 19.8687 37.1644 19.8436 37.1393C19.5094 36.8469 19.2504 36.4709 19.075 36.0532C18.9078 35.6438 18.8243 35.201 18.8577 34.7498C18.8577 34.6746 18.8577 34.5911 18.8577 34.4908V34.3488C18.8494 34.2903 18.8494 34.2318 18.8494 34.1733V33.7556C18.5736 33.7305 18.2896 33.6971 17.9721 33.5885C17.9303 33.5801 17.8969 33.5634 17.8551 33.5467H17.8467C17.8217 33.5384 17.83 33.5384 17.8384 33.5467C17.6713 33.4882 17.5042 33.4214 17.3287 33.271C17.2117 33.1958 17.1198 33.1123 17.0363 33.0287L17.0029 33.0037C16.7188 32.7447 16.4848 32.4272 16.3261 32.0846C16.1673 31.7504 16.0838 31.3828 16.0754 30.9901V30.9818C16.0671 30.4304 16.2342 29.8873 16.5266 29.4278C16.794 29.0184 17.17 28.6758 17.6211 28.4586L17.6462 28.4419C17.688 28.4168 17.7298 28.3918 17.7715 28.3751C17.6963 28.35 17.6295 28.3166 17.5627 28.2748C17.4875 28.2414 17.4206 28.1913 17.3621 28.1411C17.3036 28.1077 17.2535 28.0743 17.2117 28.0325C17.1783 27.9991 17.1449 27.974 17.1115 27.9406C17.0781 27.9156 17.0446 27.8905 17.0196 27.8654C16.8775 27.7401 16.7271 27.5981 16.5851 27.3976V27.3892C16.4598 27.2221 16.3595 27.0383 16.2843 26.8294C16.2342 26.7292 16.1924 26.6122 16.1673 26.4869C16.1005 26.1443 16.0754 25.7767 16.1172 25.4175C16.159 25.0582 16.2676 24.6989 16.4598 24.3647L16.5015 24.2896C16.6352 24.0723 16.7773 23.8384 17.0697 23.6462C17.195 23.5293 17.312 23.4624 17.429 23.3956C17.454 23.3789 17.4791 23.3705 17.5125 23.3538C17.6128 23.3037 17.7214 23.2452 17.8718 23.1784C18.0306 23.1115 18.1977 23.053 18.3731 23.0113V23.0196C18.5402 22.9778 18.6906 22.9528 18.841 22.9444V22.2593C18.841 21.733 18.841 21.2066 18.841 20.6886C18.841 20.0286 18.841 19.3769 18.841 18.7252C18.841 18.2573 18.8494 17.7895 18.8494 17.33C18.841 17.2548 18.841 17.1879 18.8494 17.1211C18.8494 17.0459 18.8494 16.9707 18.8577 16.8955V16.7201C18.8577 16.436 18.8577 16.1519 18.8661 15.8929C18.8661 15.8595 18.8744 15.8177 18.8744 15.776C18.8828 15.7175 18.8828 15.6256 18.8911 15.5253C18.8911 15.3499 18.8911 15.1744 18.9078 15.0157H18.9162C18.9162 14.9822 18.9246 14.9488 18.9329 14.9154V14.8987C18.9246 14.9154 18.9329 14.9071 18.9329 14.8987L18.9413 14.8486C18.9496 14.6731 18.9914 14.4893 19.0833 14.3139L19.0917 14.2971C19.1251 14.2387 19.1585 14.1802 19.1919 14.1301C19.2253 14.0716 19.2588 14.0047 19.3005 13.9462C19.3173 13.9128 19.3423 13.8794 19.3674 13.846C19.4593 13.7123 19.5679 13.5953 19.6682 13.4867C19.6932 13.4617 19.7267 13.4366 19.7601 13.4032C19.7684 13.3948 19.7517 13.4115 19.7684 13.3948C19.9272 13.2444 20.0859 13.0857 20.3617 12.9854C20.8797 12.693 21.3476 12.6763 21.7988 12.668L21.9575 12.6596H22.0076C22.0912 12.6596 22.2165 12.6512 22.3335 12.6512C22.5507 12.6429 22.768 12.6345 23.0103 12.6512C23.1607 12.6345 23.2943 12.6429 23.428 12.6429C23.4781 12.6429 23.5283 12.6429 23.5701 12.6429L23.9377 12.6345L24.297 12.6429C24.3638 12.6429 24.4724 12.6429 24.5727 12.6345ZM18.9329 14.8987C18.9329 14.882 18.9413 14.8653 18.9329 14.8987V14.8987ZM17.053 33.0371L17.0363 33.0287C17.0363 33.0287 17.0697 33.0538 17.053 33.0454V33.0371ZM17.8551 33.5467C17.8551 33.5551 17.8551 33.5551 17.8551 33.5467V33.5467ZM24.297 35.9195C24.2886 35.9279 24.2886 35.9446 24.297 35.9195V35.9195ZM34.9916 15.9765C35 15.9932 34.9916 15.9765 34.9833 15.9765H34.9916Z" fill="white"/>
<path fill-rule="evenodd" clip-rule="evenodd" d="M23.6037 16.9876C24.7567 16.9876 25.918 16.9709 27.071 17.0043C27.7728 17.0127 28.483 17.021 29.1848 17.0628L29.2433 17.0711C29.3602 17.1046 29.4772 17.1213 29.5942 17.1547C30.6302 17.5307 31.4824 18.3745 31.85 19.4105C32.0087 19.9201 32.0004 20.4632 31.992 20.9896V21.0313C31.9753 21.1316 31.9586 21.2319 31.9669 21.3321L31.9586 21.3572C31.7414 22.4349 30.9811 23.3707 30.0119 23.872C29.7278 24.0224 29.4104 24.1143 29.0845 24.1477C28.6501 24.1728 28.2073 24.1978 27.7645 24.1895C27.2632 24.2145 26.7535 24.1811 26.2522 24.1978C25.7927 24.2229 25.3415 24.1728 24.8904 24.1978C24.5645 24.2229 24.2387 24.1811 23.9212 24.1895C23.6789 24.1895 23.445 24.2145 23.2111 24.1978C23.1943 23.8302 23.2194 23.471 23.2111 23.1033C23.2027 22.7524 23.2027 22.4015 23.2111 22.0506C23.2111 21.6663 23.2027 21.2736 23.2111 20.8893C23.2194 20.4548 23.1943 20.0288 23.2111 19.6027C23.2111 19.4021 23.2278 19.1933 23.2111 18.9928L23.1693 19.0596C23.1609 19.2518 23.1693 19.4439 23.1776 19.6444H23.1526C23.1776 19.4272 23.1359 19.2016 23.1693 18.9844C23.2111 18.8173 23.1943 18.6418 23.2027 18.4748C23.1943 18.2742 23.2111 18.0821 23.1943 17.8899C23.2027 17.8064 23.2027 17.7312 23.2027 17.656C23.2111 17.4304 23.2278 17.2132 23.2528 16.9876C23.3698 16.9876 23.4868 16.9876 23.6037 16.9876ZM24.4977 18.2575H24.4726C24.4726 18.3745 24.4726 18.4915 24.4726 18.6084C24.4726 18.6753 24.4726 18.7505 24.4726 18.8257V18.8591C24.4977 19.093 24.4893 19.3019 24.4893 19.5108L24.481 19.6528C24.4726 19.87 24.4726 20.0705 24.481 20.2794C24.481 20.4883 24.4893 20.7055 24.481 20.9144C24.4726 21.1483 24.4726 21.3822 24.481 21.6078C24.481 21.7499 24.481 21.8919 24.481 22.0339V22.0757C24.481 22.2511 24.481 22.4182 24.4726 22.577C24.4726 22.694 24.481 22.8109 24.481 22.9279C24.5813 22.9362 24.6899 22.9362 24.7901 22.9279H24.8152C25.0742 22.9112 25.3332 22.9195 25.5922 22.9279C25.7844 22.9279 25.9682 22.9362 26.1687 22.9195V22.9279L26.2188 22.9195C26.4694 22.9195 26.7201 22.9195 26.9707 22.9279C27.213 22.9279 27.4553 22.9362 27.706 22.9195C27.731 22.9195 27.7644 22.9195 27.7895 22.9195C28.0569 22.9279 28.3744 22.9112 28.6835 22.8945L28.9926 22.8778C29.0511 22.8694 29.1263 22.8527 29.2015 22.836C29.2767 22.8109 29.3435 22.7859 29.4187 22.7441L29.4354 22.7357C29.7613 22.5686 30.0537 22.3263 30.2793 22.0339C30.4714 21.7833 30.6135 21.5076 30.6886 21.2151C30.697 21.0982 30.7054 20.9979 30.7221 20.906C30.7221 20.6971 30.7304 20.4966 30.7137 20.2794C30.7054 20.1123 30.6803 19.9452 30.6302 19.7948C30.5132 19.4773 30.321 19.1849 30.0787 18.9426C29.8281 18.692 29.5273 18.4915 29.1931 18.3661L29.1597 18.3578C29.1096 18.3494 29.0595 18.3411 29.001 18.3244C28.6751 18.3077 28.3744 18.2993 28.0986 18.2909C27.7561 18.2826 27.4219 18.2742 27.0877 18.2742H27.0376C26.1854 18.2575 25.3415 18.2575 24.4977 18.2575Z" fill="white"/>
</svg>
