<svg width="51" height="51" viewBox="0 0 51 51" fill="none" xmlns="http://www.w3.org/2000/svg">
<path fill-rule="evenodd" clip-rule="evenodd" d="M36.0441 1.24043C42.4484 2.99644 46.6477 5.59641 48.8392 12.5796C51.0375 19.5355 50.6564 27.0156 49.8261 34.1689C48.635 41.2338 45.2593 46.5358 38.6031 48.4688C30.7082 51.1504 19.7711 51.1504 11.8763 48.4688C5.2201 46.5358 1.84437 41.2338 0.653335 34.1689C-0.176986 27.0156 -0.558117 19.5355 1.647 12.5796C3.8317 5.59641 8.03094 2.99644 14.4421 1.24043C21.0302 -0.413478 29.456 -0.413478 36.0441 1.24043Z" fill="#E1322D"/>
<path fill-rule="evenodd" clip-rule="evenodd" d="M7.22129 13.056H30.0619L30.1436 13.0628C30.4907 13.09 30.8446 13.1513 31.1917 13.267C31.5116 13.3759 31.8247 13.5324 32.1037 13.757C32.4372 14.0089 32.7094 14.322 32.9136 14.6759C33.1178 15.023 33.2539 15.411 33.3288 15.7921C33.4104 16.146 33.4036 16.4727 33.4036 16.7994C33.3968 22.9386 33.4036 29.0846 33.4036 35.2239H27.4417L18.1448 35.2171L17.9066 34.2778C17.7773 33.7605 17.539 33.2773 17.2124 32.8553C16.8857 32.4333 16.4705 32.0726 16.0077 31.8207L16.0009 31.8139C15.6538 31.6234 15.2795 31.4872 14.8915 31.4056C14.5036 31.3307 14.1021 31.3103 13.7073 31.3511H13.7005C13.3058 31.392 12.9246 31.494 12.5571 31.6506C12.1896 31.8139 11.8425 32.0317 11.543 32.2904V32.2972C11.2436 32.5558 10.985 32.8621 10.774 33.1956C10.5698 33.5291 10.4065 33.8966 10.3112 34.2778L10.073 35.2171L8.16731 35.2239C4.85283 35.2239 9.35154 35.2239 7.22809 35.2239H7.21448C6.68362 35.2102 6.16637 35.0469 5.7376 34.761C5.30883 34.4684 4.95492 34.06 4.74393 33.5768C4.62823 33.3181 4.56698 33.0595 4.53976 32.794C4.51934 32.549 4.52615 32.3312 4.53976 32.1406L4.54656 32.0998C4.57379 31.8344 4.64865 31.5825 4.75755 31.3511C4.85963 31.1129 5.00256 30.8951 5.1659 30.7045C5.3973 30.4323 5.66954 30.2145 5.969 30.0511V23.4559C5.969 20.4067 5.969 17.3643 5.969 14.3152V13.056H7.22129ZM32.1581 33.9715C27.8092 33.9715 23.467 33.9715 19.1248 33.9715C18.7777 32.6035 17.8453 31.3988 16.6066 30.7249C15.6946 30.2145 14.6193 29.9967 13.578 30.1056C12.5299 30.2145 11.5158 30.6569 10.7195 31.3511C9.93685 32.0317 9.35834 32.9574 9.09972 33.9715C8.47357 33.9715 7.85424 33.9715 7.22809 33.9715C6.6632 33.9647 6.11873 33.604 5.89413 33.0799C5.77163 32.8213 5.76482 32.5286 5.79204 32.2427C5.82607 31.9705 5.94858 31.7187 6.12553 31.5077C6.39096 31.1878 6.79932 30.9972 7.22129 30.9768C7.22129 25.4229 7.21448 19.869 7.22129 14.3152H30.0619C30.5179 14.3492 30.9875 14.4649 31.3482 14.7508C31.7634 15.0638 32.0084 15.5539 32.1037 16.0507C32.1718 16.3638 32.1513 16.6769 32.1581 16.9968C32.1581 22.6528 32.1513 28.3155 32.1581 33.9715Z" fill="white"/>
<path fill-rule="evenodd" clip-rule="evenodd" d="M32.4302 31.705C32.4302 29.915 32.4302 28.1181 32.4302 26.3281C32.4302 24.2658 32.4302 22.2035 32.4302 20.1413L32.437 18.8889H33.6825C35.0097 18.8957 36.3436 18.8957 37.6776 18.8889H40.3387C40.8015 18.9025 41.2303 19.0318 41.6182 19.2292C42.0266 19.4402 42.3737 19.7329 42.6527 20.046L42.6799 20.08L42.7208 20.1344C42.8297 20.291 42.993 20.5224 43.1904 20.8083C43.3673 21.0669 43.5103 21.2915 43.6328 21.4821L43.6396 21.4889C43.9595 21.9925 44.2657 22.503 44.5516 23.0203C44.8442 23.558 45.1097 24.1025 45.3479 24.6674V24.681C45.4908 25.0281 45.6201 25.3888 45.7222 25.77C45.8379 26.1716 45.9196 26.5799 45.9536 26.9951V27.0972V33.5835L45.94 33.6924C45.9059 33.8626 45.8583 34.0464 45.7698 34.2369C45.6609 34.4751 45.5044 34.6929 45.2866 34.8767C45.0144 35.1013 44.7149 35.2238 44.4155 35.2851H44.4086C44.1977 35.3259 43.9867 35.3327 43.7893 35.3259H41.4753L41.2507 34.3594C41.135 33.8422 40.9036 33.3589 40.5905 32.9301C40.2775 32.5013 39.8759 32.1406 39.4267 31.8752L39.4131 31.8684C39.0252 31.637 38.5828 31.4736 38.12 31.3919C37.6572 31.3103 37.1808 31.3103 36.7316 31.3919H36.718C36.3232 31.4668 35.9285 31.6097 35.5678 31.8071C35.207 32.0045 34.8736 32.2563 34.5877 32.5626L32.4234 34.8631L32.4302 31.705ZM33.6757 31.705C33.6825 27.8527 33.6757 23.9936 33.6825 20.1413C35.8944 20.1413 38.0996 20.1413 40.3115 20.1413C40.856 20.1549 41.3528 20.468 41.7067 20.8695C42.013 21.2915 42.3056 21.7271 42.5847 22.1627C43.1972 23.1156 43.7553 24.1025 44.1909 25.1438C44.4427 25.77 44.6469 26.4234 44.7013 27.0972V33.4814C44.6741 33.6448 44.6196 33.8081 44.4903 33.9102C44.3066 34.0668 44.0479 34.0872 43.8165 34.0804C43.3673 34.0804 42.9181 34.0804 42.4758 34.0804C42.1627 32.7123 41.2643 31.494 40.0529 30.793C38.9979 30.16 37.7048 29.9354 36.5002 30.1668C35.4248 30.3574 34.4244 30.9087 33.6757 31.705ZM42.7548 25.0826C42.2035 23.9187 41.5161 22.8297 40.7743 21.7747C40.6722 21.6114 40.5021 21.4753 40.3115 21.4276C38.7802 21.4276 37.2488 21.4208 35.7243 21.4276C35.7243 22.6459 35.7243 23.8643 35.7243 25.0894C38.0655 25.0826 40.4136 25.0962 42.7548 25.0826ZM36.9766 22.6732V23.837H40.645C40.4136 23.4627 40.1549 23.0747 39.8759 22.6732H39.5764C38.7121 22.6732 37.8409 22.6732 36.9766 22.6732Z" fill="white"/>
<path d="M37.4396 32.2631C38.515 32.2631 39.4951 32.7055 40.2029 33.4134C40.9108 34.1212 41.3532 35.1013 41.3532 36.1767C41.3532 37.2589 40.9108 38.239 40.2029 38.9468C39.4951 39.6547 38.515 40.0903 37.4396 40.0903C36.3574 40.0903 35.3773 39.6547 34.6695 38.9468C33.9616 38.239 33.526 37.2589 33.526 36.1767C33.526 35.1013 33.9616 34.1212 34.6695 33.4134C35.3773 32.7055 36.3574 32.2631 37.4396 32.2631ZM39.3045 34.3186C38.8281 33.8354 38.1678 33.5427 37.4396 33.5427C36.7113 33.5427 36.0511 33.8354 35.5747 34.3186C35.0982 34.7951 34.7988 35.4485 34.7988 36.1767C34.7988 36.905 35.0982 37.5652 35.5747 38.0416C36.0511 38.5249 36.7113 38.8175 37.4396 38.8175C38.1678 38.8175 38.8281 38.5249 39.3045 38.0416C39.7809 37.5652 40.0736 36.905 40.0736 36.1767C40.0736 35.4485 39.7809 34.7951 39.3045 34.3186Z" fill="white"/>
<path d="M14.1087 32.2631C15.1909 32.2631 16.171 32.7055 16.8788 33.4134C17.5867 34.1212 18.0223 35.1013 18.0223 36.1767C18.0223 37.2589 17.5867 38.239 16.8788 38.9468C16.171 39.6547 15.1909 40.0903 14.1087 40.0903C13.0333 40.0903 12.0532 39.6547 11.3454 38.9468C10.6375 38.239 10.1951 37.2589 10.1951 36.1767C10.1951 35.1013 10.6375 34.1212 11.3454 33.4134C12.0532 32.7055 13.0333 32.2631 14.1087 32.2631ZM15.9736 34.3186C15.4972 33.8354 14.837 33.5427 14.1087 33.5427C13.3804 33.5427 12.727 33.8354 12.2438 34.3186C11.7674 34.7951 11.4747 35.4485 11.4747 36.1767C11.4747 36.905 11.7674 37.5652 12.2438 38.0416C12.727 38.5249 13.3804 38.8175 14.1087 38.8175C14.837 38.8175 15.4972 38.5249 15.9736 38.0416C16.4568 37.5652 16.7495 36.905 16.7495 36.1767C16.7495 35.4485 16.4568 34.7951 15.9736 34.3186Z" fill="white"/>
</svg>
